<?xml version="1.0" encoding="utf-8"?>
<!-- Generator: Adobe Illustrator 19.0.0, SVG Export Plug-In . SVG Version: 6.00 Build 0)  -->
<svg version="1.1" id="Layer_1" xmlns="http://www.w3.org/2000/svg" xmlns:xlink="http://www.w3.org/1999/xlink" x="0px" y="0px"
	 viewBox="-439 651 200 50" style="enable-background:new -439 651 200 50;" xml:space="preserve">
<style type="text/css">
	.st0{fill:#DF3049;}
	.st1{fill:#AA2539;}
	.st2{fill:#DF314A;}
</style>
<path class="st0" d="M-421.9,698c0.1-0.6,9.6-22.2,11.3-26.2c0.2-0.5,0.4-1,0.7-1.5c0.9-2.2,1.1-5.2,0.5-7.6
	c-0.2-0.7-0.3-1.2-0.6-1.7c-0.2-0.5-0.4-1-0.7-1.5c-1.2-2-2.3-3.3-4.2-4.6c-2-1.3-4.3-2-6.6-2.1h-0.7c-4.4,0.1-8.8,2.5-11,6.7
	c-0.6,1.1-0.8,1.8-1.2,3.1c-0.5,1.9-0.5,3.9,0,5.9c0.5,2.1,1.6,4.3,2.5,6.3l8.6,20c0.2,0.5,0.4,1,0.7,1.5
	C-422.5,696.6-422,697.9-421.9,698L-421.9,698z M-421.8,655c5.8,0,10.4,4.7,10.4,10.4c0,5.7-4.7,10.4-10.4,10.4
	c-5.7,0-10.4-4.6-10.4-10.4C-432.2,659.7-427.5,655-421.8,655z"/>
<path class="st1" d="M-424.8,658c0,0.9,0,0.9,0.3,1.3c0.1,0.2,0,0.2,0,0.5c-1,0.1-1.2,1.4-1.4,2.4l-0.6,2.2
	c-0.2,0.6,0.2,2.7-0.2,3.4l-0.6,1.4c-0.1,0.3-0.3,0.6-0.4,0.9c-0.1,0.3,0,0.3-0.1,0.5c-0.2,0.3-0.2,0.2-0.2,0.5
	c0.3,0.1,0.5,0.3,0.8,0.5c0.3,0.2,0.5,0.3,0.8,0.4c0.1-0.2,0.2-0.5,0-0.7c-0.1-0.1-0.1-0.1-0.2-0.2l0.4-0.8c0.2-0.4,1.1-2.4,1.1-2.5
	v-1.7c0.3,0,0.2,0,0.3,0.1c0,0,0.1,0.2,0.2,0.3c0.1,0.2,0.2,0.3,0.3,0.5c0.4,0.6,0.3,0.5,0.4,1.3l0.2,2.3c0.2,0.7,0.1,0.1,0.1,0.8
	c0,0.1,0,0.1,0.1,0.3h1.8c0-0.5-0.2-0.7-0.6-0.8c0.1-0.5,0.1-0.5,0-1.1c0-0.2-0.1-0.5-0.1-0.6l-0.2-1.8c0-0.4-0.7-1.3-1-1.7
	c-0.6-0.9-0.5-0.5,0-2.5c0.1-0.5,0-0.4,0.2-0.5c0.1,0.6,0.7,0.8,1.4,1.3s0.8,0.2,1.1,0.1c0.2,0,0.3,0,0.6,0c0.2,0.9,1,3.2,1.3,4.3
	c0.1,0.2,0.1,0.4,0.2,0.6c-0.1,0.1-0.5,0.4-0.5,0.9c0,1.5,1.9,1.7,2.3,0.5c0.2-0.5-0.2-0.3,1.2-0.6l2.2-0.5c1-0.2,0.4-0.8,0.2-0.8
	c-0.2,0-2.5,0.6-2.9,0.7c-0.5,0.1-0.8,0.3-0.9,0.1l2.3-0.6c0.9-0.2,0.8-0.1,0.2-1.9c-0.2-0.6-0.3-1-0.5-1.6c-0.2-0.6-0.7-2.8-1-3.2
	c-0.2,0-2.2,0.6-2.6,0.7c-1,0.3-0.9,0-0.4,1.8l1.3,4.4c-0.2,0-0.2,0-0.4-0.1l-1.2-4.8c0-0.1-0.1-0.2-0.1-0.3
	c-0.1-0.2-0.1-0.2-0.2-0.3c-0.2-0.1-0.6-0.1-0.8-0.1c-0.1-0.1-0.3-0.3-0.5-0.4c-1.2-0.8-0.9-0.6-1.6-2c-0.1-0.3-0.4-0.6-0.6-0.7
	c0-0.2-0.1-0.2-0.1-0.3c0.2-0.2,1.1-0.3,1.1-1.2v-0.4h0.8c0.2,0,0.3-0.4,0-0.4h-0.7c0-1.1-1-1-1.6-1
	C-424.4,656.9-424.8,657.4-424.8,658z"/>
<path class="st1" d="M-421,676.1c0.4,0.2,2,0,2.5-0.1c1.9-0.3,4.2-1.4,5.5-2.7c0.1-0.1,0.1-0.2,0.3-0.3c0.6-0.5,1.6-2.1,2-2.8
	c1.7-3.5,1.2-7.5-1-10.6c-1.6-2.2-4-3.7-6.7-4.2c-0.6-0.2-2.3-0.4-2.7-0.2c0.5,0,1.6,0.2,2.1,0.4c2.1,0.7,3.2,1.4,4.7,2.9
	c1.3,1.3,2.2,3.1,2.6,4.9c1,4.1-0.7,8.2-3.9,10.7c-1.3,1-2.7,1.6-4.4,1.9C-420.2,676-420.8,676.1-421,676.1z"/>
<path class="st2" d="M-394.6,669.9c0-1.6,0.7-2.2,1.8-2.2c1.1,0,1.8,0.6,1.8,2.2V682c0,1.6-0.7,2.2-1.8,2.2c-1.1,0-1.8-0.6-1.8-2.2
	V669.9L-394.6,669.9z M-398.1,681.8c0,3.6,1.9,5.6,5.4,5.6s5.4-2.1,5.4-5.6v-11.6c0-3.6-1.9-5.6-5.4-5.6s-5.4,2.1-5.4,5.6V681.8z"/>
<polygon class="st2" points="-380.3,664.8 -385.2,664.8 -385.2,687.2 -382.1,687.2 -382.1,671.4 -382.1,671.4 -379.5,687.2 
	-376.2,687.2 -373.8,671.1 -373.7,671.1 -373.7,687.2 -370.4,687.2 -370.4,664.8 -375.3,664.8 -377.7,680.7 -377.7,680.7 "/>
<polygon class="st2" points="-360.3,687.2 -356.7,687.2 -356.7,664.8 -359.8,664.8 -359.8,678.2 -359.9,678.2 -363.4,664.8 
	-367.9,664.8 -367.9,687.2 -364.7,687.2 -364.7,671 -364.6,671 "/>
<rect x="-354.2" y="664.8" class="st2" width="3.5" height="22.4"/>
<polygon class="st2" points="-339.4,687.2 -330.1,687.2 -330.1,684 -335.9,684 -335.9,664.8 -339.4,664.8 "/>
<path class="st2" d="M-325.3,669.9c0-1.6,0.7-2.2,1.8-2.2s1.8,0.6,1.8,2.2V682c0,1.6-0.7,2.2-1.8,2.2s-1.8-0.6-1.8-2.2V669.9
	L-325.3,669.9z M-328.8,681.8c0,3.6,1.9,5.6,5.4,5.6s5.4-2.1,5.4-5.6v-11.6c0-3.6-1.9-5.6-5.4-5.6s-5.4,2.1-5.4,5.6V681.8z"/>
<path class="st2" d="M-310.6,677.9h1.6v4.1c0,1.6-0.7,2.2-1.8,2.2c-1.1,0-1.8-0.6-1.8-2.2v-12.1c0-1.6,0.7-2.2,1.8-2.2
	c1.1,0,1.8,0.6,1.8,2.2v2.4h3.3v-2.2c0-3.6-1.8-5.6-5.3-5.6s-5.3,2.1-5.3,5.6v11.7c0,3.6,1.8,5.6,5.3,5.6s5.3-2.1,5.3-5.6v-7.1h-4.9
	L-310.6,677.9L-310.6,677.9z"/>
<rect x="-303.4" y="664.8" class="st2" width="3.5" height="22.4"/>
<path class="st2" d="M-297.7,670.2c0,2.6,0.9,4.4,3.9,7c2.3,2,3,3.2,3,4.9c0,1.6-0.7,2.2-1.8,2.2s-1.8-0.6-1.8-2.2v-1.6h-3.3v1.4
	c0,3.6,1.8,5.6,5.3,5.6s5.3-2.1,5.3-5.6c0-2.6-0.9-4.4-3.9-7c-2.3-2-3-3.2-3-4.9c0-1.6,0.6-2.2,1.8-2.2c1.2,0,1.8,0.6,1.8,2.2v0.9
	h3.3v-0.7c0-3.6-1.8-5.6-5.2-5.6C-296,664.5-297.7,666.6-297.7,670.2z"/>
<polygon class="st2" points="-286.3,668 -282.6,668 -282.6,687.2 -279.1,687.2 -279.1,668 -275.4,668 -275.4,664.8 -286.3,664.8 "/>
<rect x="-273.9" y="664.8" class="st2" width="3.5" height="22.4"/>
<path class="st2" d="M-260.9,678.9v3.2c0,1.6-0.7,2.2-1.8,2.2c-1.1,0-1.8-0.6-1.8-2.2v-12.2c0-1.6,0.7-2.2,1.8-2.2
	c1.1,0,1.8,0.6,1.8,2.2v2.4h3.3v-2.2c0-3.6-1.8-5.6-5.3-5.6s-5.3,2.1-5.3,5.6v11.7c0,3.6,1.8,5.6,5.3,5.6s5.3-2.1,5.3-5.6v-3h-3.3
	V678.9z"/>
<path class="st2" d="M-247.6,664.8h-5.2l-3.6,22.4h3.2l0.6-4.1h4.3l0.6,4.1h3.6L-247.6,664.8L-247.6,664.8z M-250.4,668.8
	L-250.4,668.8l1.7,11.3h-3.4L-250.4,668.8z"/>
</svg>
