<?xml version="1.0" encoding="utf-8"?>
<!-- Generator: Adobe Illustrator 19.0.0, SVG Export Plug-In . SVG Version: 6.00 Build 0)  -->
<svg version="1.1" id="Layer_1" xmlns="http://www.w3.org/2000/svg" xmlns:xlink="http://www.w3.org/1999/xlink" x="0px" y="0px"
	 viewBox="0 0 288.5 70" style="enable-background:new 0 0 288.5 70;" xml:space="preserve">
<style type="text/css">
	.st0{fill-rule:evenodd;clip-rule:evenodd;fill:#FFFFFF;}
	.st1{fill:#FFFFFF;}
	.st2{fill-rule:evenodd;clip-rule:evenodd;fill:#EFEFEF;}
</style>
<path class="st0" d="M21.9,68.9c0.2-0.9,14.2-32.8,16.7-38.8c0.3-0.8,0.7-1.5,1-2.3c1.3-3.3,1.6-7.8,0.7-11.2
	c-0.2-0.9-0.4-1.7-0.8-2.5c-0.3-0.8-0.6-1.5-1-2.2c-1.7-2.9-3.4-4.8-6.3-6.8c-3-2-6.3-3-9.7-3.1h-1C15,2.2,8.6,5.8,5.3,11.9
	c-0.9,1.7-1.3,2.7-1.8,4.7c-0.7,2.8-0.7,5.8,0,8.7c0.7,3.2,2.4,6.4,3.7,9.4l12.8,29.7c0.3,0.8,0.7,1.5,1,2.3
	C21,66.9,21.8,68.7,21.9,68.9L21.9,68.9z M22.1,5.4c8.5,0,15.4,6.9,15.4,15.4c0,8.5-6.9,15.4-15.4,15.4S6.7,29.3,6.7,20.8
	C6.7,12.3,13.6,5.4,22.1,5.4z"/>
<path class="st1" d="M17.7,9.8c0,1.3,0,1.3,0.5,2c0.2,0.3,0,0.2,0,0.7c-1.5,0.1-1.7,2.1-2.1,3.6l-0.9,3.3c-0.2,1,0.3,4-0.2,5.1
	l-0.9,2c-0.2,0.4-0.5,0.9-0.6,1.3c-0.1,0.4,0,0.4-0.2,0.7c-0.2,0.3-0.2,0.2-0.3,0.7c0.4,0.2,0.8,0.5,1.2,0.7
	c0.4,0.2,0.8,0.4,1.2,0.6c0.2-0.3,0.2-0.7,0.1-1.1c-0.1-0.2-0.1-0.2-0.3-0.2l0.6-1.1c0.3-0.6,1.6-3.5,1.6-3.8v-2.6
	c0.4,0,0.3-0.1,0.5,0.2c0.1,0.1,0.2,0.3,0.2,0.4c0.2,0.3,0.3,0.5,0.5,0.7c0.6,0.9,0.5,0.7,0.6,2l0.4,3.5c0.3,1.1,0.1,0.1,0.1,1.1
	c0,0.2,0,0.2,0.1,0.4h2.7c0-0.8-0.3-1-0.9-1.2c0.2-0.7,0.2-0.7,0-1.7c0-0.3-0.1-0.7-0.1-0.9L21,23.5c0-0.6-1-2-1.4-2.6
	c-0.9-1.4-0.8-0.7,0-3.7c0.2-0.7,0.1-0.6,0.3-0.7c0.2,0.8,1,1.2,2,1.9c1,0.7,1.1,0.3,1.6,0.2c0.3,0,0.5,0.1,0.8,0.1
	c0.3,1.4,1.4,4.8,1.9,6.3c0.1,0.3,0.2,0.7,0.3,1c-0.1,0.2-0.8,0.7-0.8,1.4c0,2.2,2.8,2.4,3.5,0.7c0.3-0.7-0.2-0.4,1.8-0.9l3.2-0.8
	c1.4-0.4,0.5-1.2,0.3-1.2c-0.4,0-3.6,0.9-4.3,1c-0.7,0.2-1.1,0.4-1.3,0.1l3.4-0.9c1.4-0.4,1.2-0.1,0.4-2.8c-0.2-0.8-0.4-1.6-0.7-2.4
	c-0.3-0.9-1.1-4.1-1.5-4.7c-0.3,0-3.3,0.8-3.8,1c-1.5,0.4-1.3,0-0.6,2.7l1.9,6.5c-0.3,0-0.2-0.1-0.5-0.1l-2.1-7.1
	c-0.1-0.2-0.1-0.3-0.2-0.5c-0.1-0.2-0.1-0.3-0.3-0.4c-0.3-0.1-0.8-0.1-1.1-0.2c-0.2-0.1-0.4-0.4-0.7-0.6c-1.7-1.1-1.4-0.8-2.3-3
	c-0.2-0.4-0.5-0.8-0.9-1.1c-0.2-0.1-0.3-0.1-0.4-0.3c0.3-0.4,1.6-0.5,1.6-1.8v-0.6h1.2c0.3,0,0.4-0.5,0-0.5h-1
	c0-1.7-1.4-1.5-2.3-1.5C18.2,8.2,17.7,8.9,17.7,9.8z"/>
<path class="st2" d="M23.2,36.5c0.6,0.2,2.9,0,3.6-0.2c2.8-0.5,6.2-2.1,8.1-4c0.2-0.2,0.2-0.2,0.5-0.5c0.9-0.8,2.3-3,2.9-4.2
	c2.5-5.2,1.8-11.1-1.5-15.7c-2.3-3.2-6-5.5-9.9-6.2c-0.7-0.1-3.1-0.4-3.7-0.1c0.8,0,2.4,0.3,3,0.6c3.1,1,4.7,2,6.9,4.2
	c1.9,1.9,3.2,4.6,3.9,7.2c1.4,6-1,12.2-5.8,15.8c-1.9,1.5-4.1,2.4-6.4,2.9C24.5,36.4,23.6,36.5,23.2,36.5z"/>
<path class="st1" d="M62.3,27.4c0-2.4,1-3.3,2.7-3.3c1.7,0,2.7,0.9,2.7,3.3v17.9c0,2.4-1,3.3-2.7,3.3c-1.7,0-2.7-0.9-2.7-3.3V27.4
	L62.3,27.4z M57.1,45c0,5.3,2.8,8.3,7.9,8.3c5.1,0,7.9-3,7.9-8.3V27.8c0-5.3-2.8-8.3-7.9-8.3c-5.1,0-7.9,3-7.9,8.3V45z"/>
<polygon class="st1" points="83.5,19.8 76.2,19.8 76.2,53 80.8,53 80.8,29.5 80.9,29.5 84.7,53 89.6,53 93.1,29.2 93.2,29.2 
	93.2,53 98.1,53 98.1,19.8 90.9,19.8 87.4,43.4 87.3,43.4 "/>
<polygon class="st1" points="113,53 118.4,53 118.4,19.8 113.8,19.8 113.8,39.7 113.7,39.7 108.4,19.8 101.9,19.8 101.9,53 
	106.6,53 106.6,29 106.6,29 "/>
<rect x="122.1" y="19.8" class="st1" width="5.2" height="33.2"/>
<polygon class="st1" points="144,53 157.7,53 157.7,48.2 149.2,48.2 149.2,19.8 144,19.8 "/>
<path class="st1" d="M164.8,27.4c0-2.4,1-3.3,2.7-3.3c1.7,0,2.7,0.9,2.7,3.3v17.9c0,2.4-1,3.3-2.7,3.3c-1.7,0-2.7-0.9-2.7-3.3V27.4
	L164.8,27.4z M159.6,45c0,5.3,2.8,8.3,7.9,8.3c5.1,0,7.9-3,7.9-8.3V27.8c0-5.3-2.8-8.3-7.9-8.3c-5.1,0-7.9,3-7.9,8.3V45z"/>
<path class="st1" d="M186.6,39.2h2.4v6.1c0,2.4-1,3.2-2.7,3.2c-1.7,0-2.7-0.9-2.7-3.2V27.4c0-2.4,1-3.3,2.7-3.3
	c1.7,0,2.7,0.9,2.7,3.3V31h4.9v-3.2c0-5.3-2.7-8.3-7.8-8.3c-5.1,0-7.8,3-7.8,8.3V45c0,5.3,2.7,8.3,7.8,8.3c5.1,0,7.8-3,7.8-8.3V34.5
	h-7.3V39.2z"/>
<rect x="197.3" y="19.8" class="st1" width="5.2" height="33.2"/>
<path class="st1" d="M205.6,27.8c0,3.8,1.4,6.5,5.7,10.4c3.4,3,4.5,4.8,4.5,7.2c0,2.4-1,3.2-2.7,3.2c-1.7,0-2.7-0.9-2.7-3.2V43h-4.9
	v2c0,5.3,2.7,8.3,7.8,8.3c5.1,0,7.8-3,7.8-8.3c0-3.8-1.4-6.5-5.7-10.4c-3.4-3-4.5-4.8-4.5-7.2c0-2.4,0.9-3.3,2.6-3.3
	s2.6,0.9,2.6,3.3v1.4h4.9v-1c0-5.3-2.6-8.3-7.7-8.3C208.2,19.4,205.6,22.5,205.6,27.8z"/>
<polygon class="st1" points="222.5,24.5 227.9,24.5 227.9,53 233.2,53 233.2,24.5 238.6,24.5 238.6,19.8 222.5,19.8 "/>
<rect x="240.9" y="19.8" class="st1" width="5.2" height="33.2"/>
<path class="st1" d="M260.1,40.6v4.7c0,2.4-1,3.2-2.7,3.2c-1.7,0-2.7-0.9-2.7-3.2V27.4c0-2.4,1-3.3,2.7-3.3c1.7,0,2.7,0.9,2.7,3.3
	V31h4.9v-3.2c0-5.3-2.7-8.3-7.8-8.3c-5.1,0-7.8,3-7.8,8.3V45c0,5.3,2.7,8.3,7.8,8.3c5.1,0,7.8-3,7.8-8.3v-4.4H260.1z"/>
<path class="st1" d="M279.8,19.8h-7.6L266.8,53h4.8l0.9-6h6.4l0.9,6h5.3L279.8,19.8L279.8,19.8z M275.6,25.7L275.6,25.7l2.6,16.8h-5
	L275.6,25.7z"/>
</svg>
