<?xml version="1.0" encoding="utf-8"?>
<!-- Generator: Adobe Illustrator 19.0.0, SVG Export Plug-In . SVG Version: 6.00 Build 0)  -->
<svg version="1.1" xmlns="http://www.w3.org/2000/svg" xmlns:xlink="http://www.w3.org/1999/xlink" x="0px" y="0px"
	 viewBox="0 0 500 500" style="enable-background:new 0 0 500 500;" xml:space="preserve">
<style type="text/css">
	.st0{display:none;}
	.st1{display:inline;fill:#FFFFFF;}
	.st2{fill:#A5E8F1;}
	.st3{fill:#DFFDFF;}
	.st4{fill:#71B4BD;}
	.st5{fill:#528394;}
	.st6{fill:#5E98AB;}
	.st7{fill:#FBFAF6;}
	.st8{fill:#EDD8D1;}
	.st9{fill:#564953;}
	.st10{fill:#BFAFA7;}
	.st11{fill:#7A9C02;}
	.st12{fill:#77758A;}
	.st13{fill:#E2CEC5;}
	.st14{fill:#8CB302;}
	.st15{fill:#403A44;}
	.st16{fill:#5C606C;}
	.st17{fill:#BDCBD8;}
	.st18{fill:#FFFFFD;}
	.st19{fill:#D9D9D7;}
	.st20{fill:#B99D88;}
	.st21{fill:#362F34;}
	.st22{fill:#61525E;}
	.st23{fill:#593D2D;}
	.st24{fill:#E2342B;}
	.st25{fill:#851F1A;}
	.st26{fill:#75513B;}
	.st27{fill:#AA7445;}
	.st28{fill:#875B37;}
	.st29{fill:#CC955D;}
	.st30{fill:#FECB94;}
	.st31{fill:#B3804F;}
	.st32{fill:#6B4A36;}
	.st33{fill:#614331;}
	.st34{fill:#8C663F;}
	.st35{fill:#E2C4C2;}
	.st36{fill:#E27971;}
	.st37{fill:#FED772;}
	.st38{fill:#F3C452;}
</style>
<g id="BACKGROUND" class="st0">
	<rect id="XMLID_3_" class="st1" width="500" height="500"/>
</g>
<g id="OBJECTS">
	<g id="XMLID_4_">
		<path id="XMLID_7_" class="st2" d="M426.8,281.3c-19.4,6.8-38.8,13.4-58.3,19.8c-4,1.3-8,2.6-12.1,3.9c-4.1,1.3-8.3,2.6-12.4,4
			c-9.7,3.1-19.4,6.1-29.2,9.1c-8.7,2.7-17.4,5.3-26.1,7.8c-27.8,8.2-55.7,15.9-83.7,23.2c-8.4,2.2-16.8,4.3-25.3,6.5
			c-7.9,2-15.9,3.9-23.8,5.9c-0.7,0.2-1.4,0.3-2.2,0.5c-15.5,3.7-31.1,7.3-46.7,10.8c-12.2,2.7-24.4,5.3-36.7,7.9
			c-5,1-10,2.1-15.1,3.1c-4.3-49.7-1.5-105.7,21.9-149.8c47.8-90.1,152.8-116.7,243.2-74.3c11.8,5.5,23.9,12.5,35.5,20.8
			C390.6,205,420.9,240.8,426.8,281.3z"/>
		<path id="XMLID_10_" class="st3" d="M426.8,281.3c-19.4,6.8-38.8,13.4-58.3,19.8c-4,1.3-8,2.6-12.1,3.9l-23.3-95l-5.7-23.2
			l28.5-6.4C390.6,205,420.9,240.8,426.8,281.3z"/>
		<path id="XMLID_13_" class="st3" d="M344,308.9c-9.7,3.1-19.4,6.1-29.2,9.1l-29.8-101.8l30.3-9.6L344,308.9z"/>
		<path id="XMLID_16_" class="st4" d="M368.5,301c-4,1.3-8,2.6-12.1,3.9c-4.1,1.3-8.3,2.6-12.4,4l-28.7-102.3l17.8,3.4l7.7,1.5
			L368.5,301z"/>
		<path id="XMLID_19_" class="st3" d="M156,361.3c-0.7,0.2-1.4,0.3-2.2,0.5c-15.5,3.7-31.1,7.3-46.7,10.8
			c-1.4-10.4-2.7-20.7-4.1-31.1c-4-30.3-7.9-60.5-11.9-90.7c14.7-4.7,29.2-9.4,43.8-14.1c4.7,22.6,9.1,45.7,12.9,69
			C151,324.3,153.8,342.9,156,361.3z"/>
		<path id="XMLID_22_" class="st4" d="M288.8,325.8c-27.8,8.2-55.7,15.9-83.7,23.2c-8.4,2.2-16.8,4.3-25.3,6.5
			c-7.9,2-15.9,3.9-23.8,5.9c-0.7,0.2-1.4,0.3-2.2,0.5l-8.3-55.4L135,236.8h41l7.9,49.1l92.1-18.4L288.8,325.8z"/>
		<path id="XMLID_25_" class="st5" d="M179.9,355.4c-7.9,2-15.9,3.9-23.8,5.9c-0.7,0.2-1.4,0.3-2.2,0.5
			c-15.5,3.7-31.1,7.3-46.7,10.8c-12.2,2.7-24.4,5.3-36.7,7.9l-6.3-29.3l38.9-9.7l16.2-4l-3.8-23.5l30.1-7.6l2.4-0.6l19.2-4.8
			L179.9,355.4z"/>
		<path id="XMLID_28_" class="st6" d="M205.1,349c-8.4,2.2-16.8,4.3-25.3,6.5l-12.7-54.5l24.2-2.1L205.1,349z"/>
		<path class="st7" d="M278.6,169.9c-3.1-1.6-4.5-6-2.4-9c2.1-2.9,6.9-3.2,9.4-0.6c-0.4-2.1-0.7-4.8-0.5-6.9
			c0.2-2.1,1.1-4.2,2.8-5.4c1.7-1.2,4.3-1.1,5.7,0.4c0-2.9,0.8-7.5,2.3-9.9c1.5-2.4,4.3-4.2,7.1-4c4.4,0.2,7.3,4.6,8.9,8.7
			c1.5,3.9,2.5,7.9,2.9,12.1c0.3-3,3.2-3.7,6.1-3.3c3.1,0.5,4.5,3.5,4.9,6.2c10.6-1.4,20.1-6.8,30.5-9c1.3-0.3,2.9-0.4,3.7,0.6
			c0.7,1,0.3,2.5-0.7,3.2c-8,6.5-20.5,7.6-30.1,10.5c-11.8,3.6-23.6,7.2-35.4,10.6c-8.8,2.6-17.7,5.1-26.5,7.6
			c-1.3,0.4-16.6,5.7-16.7,3c-0.2-5.5,8.1-7.5,12.1-9.4C267.8,172.9,273.7,172.3,278.6,169.9z"/>
		<path id="XMLID_32_" class="st7" d="M50.2,251.8c-1.7,0.3-3.5,0.5-5.3,0.7c-0.6,0.1-1.3,0.1-1.7-0.3c-0.5-0.5-0.4-1.3-0.1-1.9
			c0.4-0.6,1-0.9,1.6-1.3c1.7-1,23.3-11.2,23.5-10.8c-1-2.1-2.9-4.7-1.2-7.1c1.2-1.7,4.1-1.8,5.4-0.1c-0.8-2.3,0-6,0.9-8.3
			c0.9-2.3,3.2-4.1,5.6-4.1c2.5,0.1,4.8,2.5,4.3,4.9c-2.2-3,0.7-8.6,3.5-11c2.8-2.4,7.1-2.5,10.3-0.7c3.2,1.8,5.3,5.2,5.9,8.8
			c0.5,3.2-0.2,6.5-0.9,9.6c4.4-0.4,8.6-2.1,12.9-3.1c2.9-0.7,6.2-1,8.7,0.4c-3.8,3.7-10.1,4.6-15,6.2c-11.4,3.8-22.7,7.5-34,11.3
			C66.3,247.8,58.6,250.4,50.2,251.8z"/>
	</g>
	<g id="XMLID_33_">
		<path id="XMLID_36_" class="st8" d="M453.6,368.1c-1.1,0.6-2.6,1.4-4.3,2.4c-29.9,15.9-151,71.9-163.2,77c-2.5,1-5.7,2.6-9.3,4
			c-6.7,2.8-14.2,5.3-18.7,3.8c-14.6-5.1-64.5-62.2-68.5-74.9c-1.7-5.4,7.1-9.8,12.5-12.6c0.7-0.3,1.3-0.7,1.8-0.9
			c16-8.9,143.7-58.8,154.6-61.3c3.9-0.9,7.9-2.4,11.9-3.4c6.3-1.6,12.6-2.1,18.4,2.4c10.7,8.4,46.9,35.6,53.8,41.6
			C447.6,350.5,464.3,361.9,453.6,368.1z"/>
		<path id="XMLID_39_" class="st9" d="M189.5,339c-0.5,4.6-1.8,23.6,2.5,28.9c2.5,3,42.4,46.3,48.9,51.7c4,3.3,9,7.7,14.3,8.3
			c17.3,2,183-82.3,187.7-84.4c3.4-1.5,1.1-14.3,0.4-20.1L189.5,339z"/>
		<path id="XMLID_42_" class="st10" d="M436.5,340.5c-31.6,14.6-64.3,31-96.4,46.3c-3.9,1.9-7.8,3.7-11.7,5.5
			c-19.1,9-37.8,17.5-55.9,24.8c-0.2-2.3-0.2-7.5-0.6-9.5c18.5-8.5,37-17.1,55.6-25.6c36.3-16.7,72.4-33.9,108.4-50.5
			C436.4,334.2,436.5,337.5,436.5,340.5z"/>
		<path id="XMLID_45_" class="st11" d="M328.5,392.4c-19.1,9-37.8,17.5-55.9,24.8c-0.2-2.3-0.2-7.5-0.6-9.5
			c18.5-8.5,37-17.1,55.6-25.6L328.5,392.4z"/>
		<path id="XMLID_48_" class="st12" d="M440.1,329.3c-1,0.6-2.4,1.4-4.1,2.3c-28.4,15-143.2,68.2-154.8,73c-2.3,1-5.5,2.4-8.8,3.8
			c-6.3,2.6-13.5,5.1-17.7,3.6c-13.8-4.9-61.2-59-65-71c-1.6-5.2,6.8-9.3,11.9-12c0.6-0.3,1.2-0.6,1.7-0.9
			c15.2-8.4,136.4-55.8,146.7-58.2c3.7-0.9,7.5-2.3,11.3-3.2c6-1.5,11.9-2,17.4,2.3c10.2,8,44.5,33.8,51.1,39.5
			C434.4,312.6,450.2,323.3,440.1,329.3z"/>
		<path id="XMLID_51_" class="st13" d="M436,331.5c-16,8.5-59.4,29.1-96.4,46.3c-4,1.9-8,3.7-11.9,5.5c-0.1,0-0.1,0.1-0.2,0.1
			c-23.3,10.8-42,19.3-46.4,21.1c-2.3,1-5.5,2.4-8.8,3.8c-3.8-4.8-7.7-9.5-11.7-14.2c-2.3-2.7-4.6-5.4-6.9-8
			c-16.9-19.6-34.5-38.7-52.3-57.2c0.6-0.3,1.2-0.6,1.7-0.9c6-3.3,28.6-12.8,54.4-23.1c4-1.6,8-3.2,12.1-4.8
			c23.1-9.2,47.1-18.4,62.9-24.3c4.4-1.6,8.2-3,11.1-4c3.1-1.1,5.2-1.8,6.3-2c3.7-0.9,7.5-2.3,11.3-3.2c3.8,3.3,7.5,6.6,11.3,9.9
			c3.1,2.7,6.2,5.4,9.3,8.1c12,10.4,24,20.8,36,31.1l11.1,9.7C431.3,327.5,433.6,329.5,436,331.5z"/>
		<path id="XMLID_54_" class="st14" d="M354.2,305.7l-52.6,30l-32-35.6c23.1-9.2,47.1-18.4,62.9-24.3L354.2,305.7z"/>
		<path id="XMLID_55_" class="st15" d="M213.6,366.2c1.8,3.3,14.1,16.8,16,18.3c2.4,1.9,11.3-5.4,11.9-6.9
			c0.6-1.6-14.7-16.9-16.8-18.5C222.8,357.7,212.1,363.4,213.6,366.2z"/>
		<path id="XMLID_58_" class="st16" d="M216,367.1c0,0,13.2,14.4,14.5,15.1s7.8-4.1,8.4-5.1s-13.4-14.9-14.3-15.5
			S214.9,365.7,216,367.1z"/>
		<path id="XMLID_59_" class="st17" d="M408.6,299.8c-4.8-4.4-9.6-8.7-14.4-13.1c-1.4-1.3-3.6,0.8-2.1,2.1
			c4.8,4.4,9.6,8.7,14.4,13.1C407.9,303.2,410,301.1,408.6,299.8z"/>
		<path id="XMLID_62_" class="st18" d="M429,325.4c0,0-54.5,39.1-87.1,1.6l-31.1,18.8l28.8,32c-4,1.9-8,3.7-11.9,5.5l-12.2-13.7
			l-54.8,24.5c-2.3-2.7-4.6-5.4-6.9-8l54-25L257.6,305c4-1.6,8-3.2,12.1-4.8l32,35.6c14.6-8.4,52.6-30,52.6-30l-21.7-29.8
			c4.4-1.6,8.2-3,11.1-4l9.1,12.7l19.7-8.1c3.1,2.7,6.2,5.4,9.3,8.1l-22.3,9.4l11.2,15.6l-17.5,10.6c9.1,8.4,32.5,21.5,67.3-2.2
			L429,325.4z"/>
		<path class="st19" d="M340.1,386.8c-3.9,1.9-7.8,3.7-11.7,5.5l-0.8-9.2l11.9-5.4L340.1,386.8z"/>
		<path id="XMLID_66_" class="st14" d="M327.6,383.2l-0.2,0.3c-23.3,10.8-42,19.3-46.4,21.1c-2.3,1-5.5,2.4-8.8,3.8
			c-3.8-4.8-7.7-9.5-11.7-14.2l54.8-24.5L327.6,383.2z"/>
		<polygon id="XMLID_69_" class="st20" points="235.3,320.5 255.2,311.2 278.8,339 259.5,347.7 		"/>
		<polygon id="XMLID_70_" class="st20" points="266.1,358.9 275.7,371.8 295.1,361.5 285.8,351.2 		"/>
		<polygon id="XMLID_71_" class="st20" points="245.8,369.7 260.7,361.5 268.9,374.6 254.3,382.1 		"/>
		<polygon id="XMLID_72_" class="st20" points="318.7,347.7 328.5,342.2 333.9,351.2 325.1,356.2 		"/>
		<polygon id="XMLID_73_" class="st20" points="327.6,358.9 344.6,349.2 360.6,364.5 340.1,373.5 		"/>
		<polygon id="XMLID_74_" class="st20" points="368.1,296.7 380.6,290.7 386.1,299.7 372.6,305.8 		"/>
		<path id="XMLID_75_" class="st21" d="M203,368.4c-2.1-2.1-4.3-4.3-6.4-6.4c-1.4-1.4-3.5,0.8-2.1,2.1c2.1,2.1,4.3,4.3,6.4,6.4
			C202.3,371.9,204.4,369.7,203,368.4z"/>
		<path id="XMLID_76_" class="st21" d="M205.3,371.2c-1.9,0-1.9,3,0,3C207.2,374.2,207.2,371.2,205.3,371.2z"/>
		<path id="XMLID_79_" class="st22" d="M236,402.3c-0.4,2-0.9,5.1-1.5,8.3c5.8,5.3,12.1,10.1,18.6,14.3c0.7-2.8,1.1-6,1-9
			C247.8,411.9,241.7,407.3,236,402.3z"/>
		<path id="XMLID_82_" class="st22" d="M261.5,424.8c-0.2-3.1-0.6-6.3-0.8-9.4c-1.1,0.5-2.8,0.6-4,0.4c0.1,3,0.2,6,0.3,9
			C258,425.3,260.3,425.1,261.5,424.8z"/>
		<path id="XMLID_83_" class="st17" d="M434.8,319.7c-0.1,0-0.2,0-0.2,0c-0.8-0.1-1.5,0.8-1.5,1.5c0,0.9,0.7,1.4,1.5,1.5
			c0.1,0,0.2,0,0.2,0c0.8,0.1,1.5-0.8,1.5-1.5C436.2,320.3,435.6,319.8,434.8,319.7z"/>
	</g>
	<path id="XMLID_86_" class="st4" d="M249.7,229.2c-1.4,2.7-2.5,5.4-3.6,8.1c-1.7-6.7-4.7-13.4-7.5-19.4
		c-3.8-8.4-8.4-16.4-14.1-23.6c-10.4-13.3-24-23.9-40-29.4c-2.3-0.8-3.3,2.8-1,3.6c15.6,5.5,28.9,16.2,38.8,29.5
		c4.9,6.6,9,13.7,12.4,21.2c3.4,7.4,5.3,15.5,8.4,23c-3.8-1.5-7.6-3.1-11.5-3.8c-1.4-0.3-2.4,1.6-1,2.5c4.4,2.6,9.6,4,14.3,5.7
		c0.9,0.3,1.9-0.4,2.1-1.2c1.4-5,3.2-9.7,5.6-14.3C253.9,229,250.8,227.2,249.7,229.2z"/>
	<g>
		<path id="XMLID_88_" class="st23" d="M129.2,59.1c-0.1-0.3-0.5-0.4-0.8-0.2c-1.8,2.1-2.2,5.3-2.8,8c-0.8,3.1-1.7,6.3-1.9,9.5
			c-0.1,0.9,1.2,0.9,1.5,0.2c1.2-3.1,1.8-6.6,2.6-9.8C128.5,64.3,129.6,61.7,129.2,59.1z"/>
		<path class="st24" d="M161,64.7c-3.8-5.2-11.1-7.6-17.9-8.1c-9-0.6-13.8,2.1-14.8,3.2c-1.1-1.6-9.6-6.8-16.2-8.2
			c-5.7-1.2-12.8,0.1-16.5,2c0-0.5,0.1-1,0.2-1.6c1.8-13.5,16-26.9,37.6-25.2c17.4,1.4,27.8,17.7,28.4,31.1
			C161.8,60,161.4,62.8,161,64.7z"/>
		<path class="st25" d="M161,64.7c-3.8-5.2-11.1-7.6-17.9-8.1c-9-0.6-13.8,2.1-14.8,3.2c-1.1-1.6-9.6-6.8-16.2-8.2
			c-5.7-1.2-12.8,0.1-16.5,2c0,0,3.1-7.9,9.7-9c6.5-1.2,11.6,1.6,12.7,4.4c0,0,4.8-4.3,11.7-4.8c6.9-0.5,14.2,4.4,14.7,8.5
			c0,0,5.6-4.7,10.2-3.3C159.2,50.6,161.4,59.1,161,64.7z"/>
		<path id="XMLID_89_" class="st26" d="M160.4,64.6c-6.5,1.5-12.9,3.3-19.3,5.1c-4.7,1.4-9.8,2.5-14.4,4.4
			c7.1-6.1,13.2-14.5,18.5-22c0.6-0.8-0.7-1.5-1.3-0.8c-3.5,4.6-7,9.1-10.8,13.4c-2.7,3.1-5.7,5.9-8.3,9.1c0,0,0,0,0,0
			c-0.6-4.1-1.5-8.2-2.5-12.2c-1.1-4.5-2.1-9.4-4.4-13.4c-0.3-0.6-1.1-0.2-1,0.4c0.7,4.5,2.6,9,3.8,13.4c1.1,3.8,1.9,7.7,2.8,11.5
			c-2.9-3.3-6.5-5.8-10.1-8.4c-5.7-4.1-11.2-8.7-17.4-12.1c-0.6-0.3-1.2,0.4-0.7,0.9c8.3,7.9,18.9,12.9,26.9,21.1
			c-7.3,3.8-14.2,8.7-21,13.1c-6.7,4.3-13.2,8.8-18.5,14.9c-1.1,1.3,1,2.9,2.2,1.6c10.6-12.2,26.2-18.3,38.9-28
			c0.2,0.2,0.4,0.2,0.7,0.2c8.9,10.6,16,22.1,22.3,34.5c0.6,1.2,2.5,0.4,1.9-0.9C143.4,98,135.6,86.4,126.9,76
			c5.3-1.2,10.5-3.2,15.7-4.7c6.1-1.7,12.2-3.3,18.3-4.9C162,66.1,161.6,64.3,160.4,64.6z"/>
		<path class="st27" d="M54.9,165.8c17.3,7.9,44.3,19.5,62.6,27.8c6-0.8,11.7-1.9,17.2-3c5.3-1.1,10.4-2.3,15.3-3.6
			c8-2,15.6-4.1,22.7-6c-19.3-7.9-47.2-18-67.8-25.5C90,155.9,67.7,161.1,54.9,165.8z"/>
		<path class="st28" d="M69.4,162.1c4.2,1.8,8.1,3.5,12.1,5.6c3.7-1,7.4-2.9,11.1-3.9c-2.7-1.5-5.9-3.4-8.7-4.9
			C78.8,159.3,74.3,160.7,69.4,162.1z"/>
		<path class="st29" d="M54.9,165.8c4.7-1.2,9.6-2.5,14.5-3.7c4.8-1.2,9.7-2.3,14.6-3.3c7-1.4,14.1-2.6,21-3.2
			c2.9-19.4,6-38.1,6.3-59.4c-6.5,1.4-13.2,3-20,4.6c-5,1.2-10.1,2.4-15.1,3.6c-4.7,1.1-9.4,2.2-13.9,3.1
			C60.4,126.7,56.7,146.5,54.9,165.8z"/>
		<path class="st30" d="M104.9,155.6c2.4-20.6,4.2-37.9,6.3-59.4c22.7,8.6,44.8,18,67.4,26.6c0.3,19-3.9,42.2-6,58.3
			C147.3,172.9,129.4,164.7,104.9,155.6z"/>
		<path class="st31" d="M75.2,112.9c1.7-0.4,10.3-1.5,14.9-3c0.4-3.1,0.8-6.1,1.2-9.2c-5,1.2-10.1,2.4-15.1,3.6
			C75.8,107,75.6,109.4,75.2,112.9z"/>
		<path class="st31" d="M69.4,162.1c4.8-1.2,9.7-2.3,14.6-3.3c0.4-2.8,0.9-5.5,1.3-8.3c-5,0.4-9.8,1-14.7,1.5
			C70,155.1,69.6,158.7,69.4,162.1z"/>
		<path class="st28" d="M126.5,186.4c2,1.2,6,2.8,8.2,4.1c5.3-1.1,10.4-2.3,15.3-3.6c-3.4-1.5-8.6-3.2-12.1-4.6
			C133,183.6,130.1,185.4,126.5,186.4z"/>
		<path class="st28" d="M163.6,169.9c1-1.4,2.7-3,4.3-4.3c0.8,2,1.3,3.9,1.4,5.9c-0.5-0.1-1-0.1-1.5-0.2c-0.2,1.1-0.5,2.2-0.7,3.3
			c-1-0.3-2-0.6-3-1c0.3-1,0.7-2,1.1-3C164.7,170.3,164.2,170.1,163.6,169.9z"/>
		<path class="st28" d="M158,162.4c-0.4,0.9-0.9,2.1-1,3.2c0,1,0.5,2.2,1.5,2.5c1.1,0.4,2.3-0.3,2.9-1.2c0.6-0.9,0.8-2.1,0.9-3.2
			C160.9,163.3,159.3,162.8,158,162.4z"/>
		<path class="st28" d="M156.4,170.4c0.4,0.1,0.7,0.2,1.1,0.3c0.2-1,0.5-1.9,0.7-2.9c0.1-0.5,0.9-0.2,0.7,0.3
			c-0.2,0.9-0.5,1.9-0.7,2.8c0.3,0.1,0.6,0.2,0.9,0.3c0.5,0.1,0.2,0.9-0.3,0.7c-0.9-0.3-1.9-0.6-2.8-0.8
			C155.6,171,155.9,170.2,156.4,170.4z"/>
		<path class="st23" d="M80.6,158c10.2,6.3,20.7,11.6,31.6,16.5c0,0,0,0,0.1,0c0.7-0.2,1.4-0.5,2.1-0.7c7-2.6,14.8-5.8,22.3-6.4
			c0.7-0.1,1.1,1,0.4,1.3c-6.9,3-14.7,4.5-21.8,7.1c0,0-0.1,0-0.1,0.1c9.2,4.1,18.5,8.1,27.2,13.3c0.7,0.4,0,1.7-0.7,1.3
			c-9.5-4.8-19.2-9.2-28.9-13.6c-6.2,2.5-12.3,5.9-18.6,7.8c-0.8,0.2-1.7-0.8-0.9-1.4c4.8-3.4,10.8-5.7,16.6-7.7
			c-0.1,0-0.1-0.1-0.2-0.1c-10.3-4.6-20.8-9.4-30.1-15.8C78.4,158.8,79.5,157.4,80.6,158z"/>
		<path class="st32" d="M138.5,153.3c1.1-4.9,2.1-9.9,3.1-14.8s1.9-9.9,2.7-14.9c0.8-4.7,1.2-9.7,2.6-14.3c0.2-0.8,1.3-0.4,1.3,0.3
			c0.1,5.2-1.2,10.6-2,15.8c-0.8,5-1.7,9.9-2.7,14.9c-1,4.9-2,9.9-3.1,14.8c-1,4.5-1.6,9.9-3.7,14.1c-0.4,0.8-1.5,0.5-1.5-0.4
			C135.3,163.7,137.3,158.3,138.5,153.3z"/>
		<path class="st33" d="M84.3,102.6c0.1-0.4,0.8-0.3,0.8,0.1c0.4,9.1-1.4,18.5-2.1,27.6c-0.4,4.7-0.7,9.4-0.9,14.1
			c-0.3,4.9-0.1,10.1-0.9,14.9c-0.1,0.8-1.5,1-1.5,0c-0.9-9.3,0.6-19.2,1.3-28.5C81.7,121.6,81.8,111.5,84.3,102.6z"/>
		<path class="st34" d="M95.7,148.2c1-0.5,2.3-0.4,3.4-0.4c1.3-0.1,2.7-0.3,4-0.1c0.3,0.1,0.3,0.6,0,0.6c-1.3,0.4-2.6,0.3-3.9,0.4
			c-1.1,0.1-2.4,0.3-3.4-0.1C95.6,148.5,95.5,148.2,95.7,148.2z"/>
		<path class="st34" d="M89.7,148.5c0.7-0.2,1.5-0.3,2.3-0.3c0.7,0,1.4-0.2,2,0.1c0.1,0.1,0.1,0.2,0,0.3c-0.6,0.4-1.3,0.3-2,0.3
			c-0.8,0-1.5,0.1-2.3-0.1C89.6,148.8,89.6,148.6,89.7,148.5z"/>
		<path class="st34" d="M101.1,150.1c0.4,0,0.8,0,1.2-0.1c0.3,0,0.5,0,0.7,0.1c0,0,0,0,0.1,0c0.3,0,0.3,0.5,0,0.5c0,0,0,0-0.1,0
			c-0.2,0.2-0.4,0.2-0.7,0.2c-0.4,0-0.8,0.1-1.2,0.1C100.6,151.1,100.5,150.2,101.1,150.1z"/>
		<path class="st34" d="M90.3,151c1.5-0.3,3.1-0.5,4.7-0.6c1.5-0.1,3.2-0.4,4.7,0c0.3,0.1,0.3,0.5,0,0.5c-1.5,0.5-3.1,0.4-4.7,0.5
			c-1.6,0.1-3.1,0.1-4.7-0.1C90.1,151.4,90.1,151.1,90.3,151z"/>
		<path class="st34" d="M97.5,152.8c1.8,0,3.6-0.3,5.4-0.1c0.3,0,0.3,0.6,0,0.7c-1.7,0.5-3.7,0.3-5.4,0.3
			C97,153.7,96.9,152.8,97.5,152.8z"/>
		<path class="st34" d="M94.5,152.8c0.2,0,0.4,0,0.7,0c0.1,0,0.2,0,0.3,0c0.1,0,0.2,0.1,0.3,0.1c0.3,0,0.3,0.5,0,0.6
			c-0.1,0-0.2,0.1-0.3,0.1c-0.1,0-0.2,0.1-0.3,0.1c-0.2,0-0.4,0-0.7,0C94,153.8,93.9,152.8,94.5,152.8z"/>
		<path class="st35" d="M144.3,52.6c2.9-8.6,0.2-25.4-11.6-25.8c-11.8-0.4-14.8,22.2-14.8,22.2s4.8-4.3,11.7-4.8
			C136.5,43.6,143.8,48.5,144.3,52.6z"/>
	</g>
	<g id="XMLID_87_">
		<path id="XMLID_103_" class="st24" d="M274.3,307.8c-3,5.9-8.9,17.2-16.8,16.3c-4.2-0.5-7.6-3.8-10.4-7.7
			c-2.6-3.5-4.6-7.4-6.4-10.2c-5.8-9.2-9.1-23.7-4.6-34c2.6-5.9,7.2-10.2,12.5-12.6c6.3-2.8,13.7-2.8,20.2,0.7
			c1.4,0.7,2.7,1.6,4,2.7C285.4,273.7,280.8,295,274.3,307.8z"/>
		<path id="XMLID_106_" class="st36" d="M272.7,263.1c-1.3-1.1-2.6-2-4-2.7c-3.7-2-7.8-2.9-11.7-2.7c3.3,0.1,6.6,1,9.7,2.7
			c1.4,0.7,2.7,1.6,4,2.7c12.7,10.6,8.1,32,1.5,44.7c-2.8,5.4-8,15.4-14.9,16.3c0,0,0.1,0,0.1,0c7.9,0.9,13.8-10.4,16.8-16.3
			C280.8,295,285.4,273.7,272.7,263.1z"/>
		<path id="XMLID_109_" class="st37" d="M271.2,293.4c-1.8,2.3-4.3,4.1-7,5.2c-1.1,0.5-2.3,0.8-3.5,1c-3.1,0.6-6.5,0.4-9.5-0.7
			c-6.9-2.6-11.7-10-11.2-17.4c0.7-11.6,11.8-17.7,21.5-15.5c1.2,0.3,2.3,0.7,3.5,1.2c1.1,0.5,2.1,1.1,3.1,1.9
			c1.3,1,2.5,2.2,3.6,3.7C275.9,278.7,275.7,287.5,271.2,293.4z"/>
		<path id="XMLID_112_" class="st38" d="M251.2,298.9c-6.9-2.6-11.7-10-11.2-17.4c0.7-11.6,11.8-17.7,21.5-15.5
			C264,275.7,256.9,289.9,251.2,298.9z"/>
		<path id="XMLID_113_" class="st38" d="M264.2,298.6c-1.1,0.5-2.3,0.8-3.5,1c3.6-10.5,5-21.4,4.3-32.5c1.1,0.5,2.1,1.1,3.1,1.9
			C268.5,279,267.2,289,264.2,298.6z"/>
	</g>
</g>
<g id="DESIGNED_BY_FREEPIK">
</g>
</svg>
