<?xml version="1.0" encoding="utf-8"?>
<!-- Generator: Adobe Illustrator 19.0.0, SVG Export Plug-In . SVG Version: 6.00 Build 0)  -->
<svg version="1.1" id="Objects" xmlns="http://www.w3.org/2000/svg" xmlns:xlink="http://www.w3.org/1999/xlink" x="0px" y="0px"
	 viewBox="0 0 545.4 344.9" style="enable-background:new 0 0 545.4 344.9;" xml:space="preserve">
<style type="text/css">
	.st0{display:none;fill:#FF9FAC;}
	.st1{clip-path:url(#XMLID_3_);}
	.st2{fill:#FFFFFF;}
	.st3{fill:#E7E7E8;}
	.st4{fill:#F2F1F1;}
	.st5{fill:#414654;}
	.st6{fill:#BCBEC0;}
	.st7{fill:#D1D3D4;}
	.st8{fill:#F1F2F2;}
	.st9{fill:#808285;}
	.st10{fill:url(#SVGID_1_);}
	.st11{fill:url(#SVGID_2_);}
	.st12{fill:url(#SVGID_3_);}
	.st13{fill:url(#SVGID_4_);}
	.st14{fill:url(#SVGID_5_);}
	.st15{fill:url(#SVGID_6_);}
	.st16{fill:url(#SVGID_7_);}
	.st17{fill:url(#SVGID_8_);}
	.st18{fill:url(#SVGID_9_);}
	.st19{fill:#E8E8E8;}
	.st20{fill:#FEC873;}
	.st21{fill:#EFB065;}
	.st22{fill:#E39B47;}
	.st23{fill:#EFD5A9;}
	.st24{fill:#D6B59D;}
	.st25{fill:#C3A386;}
	.st26{fill:#5D5F63;}
	.st27{fill:#F9F9F9;}
	.st28{fill:#CCCBCB;}
	.st29{fill:#D8D8D8;}
	.st30{fill:#C3E4F0;}
	.st31{fill:#FFFEFE;}
	.st32{fill:#E1F1F7;}
	.st33{fill:#FDFFFF;}
	.st34{fill:#2C2E3A;}
	.st35{fill:#BDBEC0;}
	.st36{fill:#4B72AA;}
	.st37{fill:#4BC1DD;}
	.st38{opacity:0.18;fill:#F2F2F2;}
	.st39{fill:#343A54;}
	.st40{opacity:0.17;fill:#F2F2F2;}
	.st41{fill:#E9E9EA;}
	.st42{fill:#F9D93D;}
	.st43{fill:#E84B3D;}
	.st44{fill:#F3F3F3;}
	.st45{fill:#D3D2D2;}
	.st46{opacity:0.4;clip-path:url(#XMLID_3_);}
	.st47{enable-background:new    ;}
</style>
<rect class="st0" width="545.4" height="344.9"/>
<g>
	<defs>
		<rect id="XMLID_1_" width="545.4" height="344.9"/>
	</defs>
	<clipPath id="XMLID_3_">
		<use xlink:href="#XMLID_1_"  style="overflow:visible;"/>
	</clipPath>
	<g class="st1">
		<g>
			<g>
				<polygon class="st2" points="142.8,84.3 107.2,138.2 190.9,193.5 232,131.2 156.7,81.5 				"/>
				<g>
					
						<rect x="120.4" y="115.5" transform="matrix(0.5511 -0.8344 0.8344 0.5511 -48.9656 172.9422)" class="st3" width="31.7" height="32.9"/>
					<g>
						
							<rect x="132.1" y="129.8" transform="matrix(0.5511 -0.8344 0.8344 0.5511 -35.7187 195.6843)" class="st3" width="63.8" height="2.6"/>
						
							<rect x="136.7" y="132.8" transform="matrix(0.5511 -0.8344 0.8344 0.5511 -36.1916 200.9183)" class="st3" width="63.8" height="2.6"/>
						
							<rect x="141.4" y="135.9" transform="matrix(0.5511 -0.8344 0.8344 0.5511 -36.6645 206.1525)" class="st3" width="63.8" height="2.6"/>
						
							<rect x="146" y="138.9" transform="matrix(0.5511 -0.8344 0.8344 0.5511 -37.1375 211.3862)" class="st3" width="63.8" height="2.6"/>
						
							<rect x="150.6" y="142" transform="matrix(0.5511 -0.8344 0.8344 0.5511 -37.6104 216.6201)" class="st3" width="63.8" height="2.6"/>
						
							<rect x="155.2" y="145" transform="matrix(0.5511 -0.8344 0.8344 0.5511 -38.0834 221.854)" class="st3" width="63.8" height="2.6"/>
						
							<rect x="159.9" y="148.1" transform="matrix(0.5511 -0.8344 0.8344 0.5511 -38.5564 227.088)" class="st3" width="63.8" height="2.6"/>
						
							<rect x="164.5" y="151.1" transform="matrix(0.5511 -0.8344 0.8344 0.5511 -39.0292 232.322)" class="st3" width="63.8" height="2.6"/>
						
							<rect x="169.1" y="154.2" transform="matrix(0.5511 -0.8344 0.8344 0.5511 -39.5022 237.5559)" class="st3" width="63.8" height="2.6"/>
						
							<rect x="173.8" y="157.3" transform="matrix(0.5511 -0.8344 0.8344 0.5511 -39.9751 242.7902)" class="st3" width="63.8" height="2.6"/>
					</g>
					<g>
						<path class="st3" d="M160.7,109.6c-1.2,1.6-2.6,2.7-2.6,2.7l-3.2-2.1l1.1-1.7l1.6,0.6c0,0,0.7-0.4,1.4-1.4
							c0.7-1.1,0.9-2.3,0.1-2.9c-2-1.3-4.7,4.9-8.9,2.2c-1.9-1.3-2.2-3.3-1.4-5.4l-2.2-1.4l1.3-2l2.1,1.4c1.2-1.5,2.6-2.4,2.6-2.4
							l3,2.1l-1,1.6l-1.6-0.5c0,0-0.8,0.6-1.2,1.3c-0.8,1.2-0.7,2.1,0,2.5c1.9,1.3,4.8-4.8,8.8-2.2c2.1,1.4,2.5,3.5,1.6,5.7l2.6,1.7
							l-1.3,2L160.7,109.6z"/>
					</g>
				</g>
				<polygon class="st4" points="142.8,84.3 156.7,81.5 151.1,89.8 				"/>
			</g>
			<g>
				<polygon class="st2" points="115.7,106.2 97.1,168 193.2,196.9 214.7,125.5 128.2,99.4 				"/>
				<g>
					
						<rect x="107.3" y="137.2" transform="matrix(0.2881 -0.9576 0.9576 0.2881 -59.4989 227.3268)" class="st3" width="31.7" height="32.9"/>
					<g>
						
							<rect x="117.6" y="143.5" transform="matrix(0.2881 -0.9576 0.9576 0.2881 -32.2619 246.2111)" class="st3" width="63.8" height="2.6"/>
						
							<rect x="122.9" y="145.1" transform="matrix(0.2881 -0.9576 0.9576 0.2881 -30.0112 252.4345)" class="st3" width="63.8" height="2.6"/>
						
							<rect x="128.2" y="146.7" transform="matrix(0.2881 -0.9576 0.9576 0.2881 -27.7607 258.6579)" class="st3" width="63.8" height="2.6"/>
						
							<rect x="133.5" y="148.3" transform="matrix(0.2881 -0.9576 0.9576 0.2881 -25.5101 264.8814)" class="st3" width="63.8" height="2.6"/>
						
							<rect x="138.8" y="149.9" transform="matrix(0.2881 -0.9576 0.9576 0.2881 -23.2593 271.105)" class="st3" width="63.8" height="2.6"/>
						
							<rect x="144.1" y="151.5" transform="matrix(0.2881 -0.9576 0.9576 0.2881 -21.0089 277.3283)" class="st3" width="63.8" height="2.6"/>
						
							<rect x="149.4" y="153.1" transform="matrix(0.2881 -0.9576 0.9576 0.2881 -18.7583 283.5517)" class="st3" width="63.8" height="2.6"/>
						
							<rect x="154.7" y="154.7" transform="matrix(0.2881 -0.9576 0.9576 0.2881 -16.5076 289.7751)" class="st3" width="63.8" height="2.6"/>
						
							<rect x="160" y="156.3" transform="matrix(0.2881 -0.9576 0.9576 0.2881 -14.257 295.9987)" class="st3" width="63.8" height="2.6"/>
						
							<rect x="165.4" y="157.9" transform="matrix(0.2881 -0.9576 0.9576 0.2881 -12.0065 302.2222)" class="st3" width="63.8" height="2.6"/>
					</g>
					<g>
						<path class="st3" d="M140.2,125.2c-0.7,1.9-1.8,3.4-1.8,3.4l-3.7-1.1l0.6-1.9l1.7,0.2c0,0,0.6-0.6,0.9-1.7
							c0.4-1.3,0.2-2.5-0.8-2.8c-2.3-0.7-3.1,6.1-7.9,4.6c-2.2-0.7-3.1-2.5-2.9-4.8l-2.5-0.7l0.7-2.3l2.4,0.7
							c0.7-1.8,1.7-3.1,1.7-3.1l3.4,1.1l-0.5,1.8l-1.7-0.1c0,0-0.6,0.8-0.8,1.6c-0.4,1.3,0,2.2,0.7,2.4c2.2,0.7,3.2-6,7.8-4.7
							c2.4,0.7,3.4,2.7,3.2,5l3,0.9l-0.7,2.3L140.2,125.2z"/>
					</g>
				</g>
				<polygon class="st4" points="115.7,106.2 128.2,99.4 125.3,109 				"/>
			</g>
		</g>
		<g>
			<g>
				<g>
					<g>
						<path class="st5" d="M141.4,247.7c0.6,1.3-0.1,2.9-1.4,3.5l-67.8,28.9c-1.3,0.6-2.9-0.1-3.5-1.4l-39.6-93
							c-0.6-1.3,0.1-2.9,1.4-3.5l67.8-28.9c1.3-0.6,2.9,0.1,3.5,1.4L141.4,247.7z"/>
						<path class="st6" d="M75.2,273.7c-1.9,0.8-4.1-0.1-5-2l-34.8-81.7c-0.8-1.9,0.1-4.2,2-5l58.1-24.7c1.9-0.8,4.2,0.1,5,2
							l34.8,81.7c0.8,1.9-0.1,4.2-2,5L75.2,273.7z"/>
						<path class="st7" d="M75,273c-1.9,0.8-4.1-0.1-5-2l-34.8-81.7c-0.8-1.9,0.1-4.2,2-5l58.1-24.7c1.9-0.8,4.2,0.1,5,2l34.8,81.7
							c0.8,1.9-0.1,4.2-2,5L75,273z"/>
						<path class="st8" d="M34.9,188.6l0.6,1.4c-0.8-1.9,0.1-4.1,2-5l58.1-24.7c1.9-0.8,4.2,0.1,5,2l-0.6-1.4c-0.8-1.9-3-2.8-5-2
							l-58.1,24.7C35,184.5,34.1,186.7,34.9,188.6z"/>
						<path class="st2" d="M74.7,272.3c-1.9,0.8-4.2-0.1-5-2l-34.8-81.7c-0.8-1.9,0.1-4.1,2-5L95,158.9c1.9-0.8,4.2,0.1,5,2
							l34.8,81.7c0.8,1.9-0.1,4.1-2,5L74.7,272.3z"/>
						<g>
							<g>
								<path class="st9" d="M92.7,162.5c-0.6,0.3-0.9,1-0.6,1.6c0.3,0.6,1,0.9,1.6,0.6c0.6-0.3,0.9-1,0.6-1.6
									C94,162.5,93.3,162.3,92.7,162.5z"/>
								
									<linearGradient id="SVGID_1_" gradientUnits="userSpaceOnUse" x1="6884.3398" y1="1786.7699" x2="6876.1426" y2="1786.7699" gradientTransform="matrix(-0.3918 -0.92 -0.92 0.3918 4431.168 5789.8125)">
									<stop  offset="0" style="stop-color:#DCDDDE"/>
									<stop  offset="1" style="stop-color:#A7A9AC"/>
								</linearGradient>
								<path class="st10" d="M90.1,156.3c-0.5,0.2-0.7,0.8-0.5,1.2l2.6,6.2c0.2,0.5,0.8,0.7,1.2,0.5l0,0c0.5-0.2,0.7-0.8,0.5-1.2
									l-2.6-6.2C91.1,156.3,90.5,156.1,90.1,156.3L90.1,156.3z"/>
							</g>
							<g>
								<path class="st9" d="M86.3,165.3c-0.6,0.3-0.9,1-0.6,1.6c0.3,0.6,1,0.9,1.6,0.6c0.6-0.3,0.9-1,0.6-1.6
									C87.6,165.3,86.9,165,86.3,165.3z"/>
								
									<linearGradient id="SVGID_2_" gradientUnits="userSpaceOnUse" x1="6884.3398" y1="1793.7811" x2="6876.1465" y2="1793.7811" gradientTransform="matrix(-0.3918 -0.92 -0.92 0.3918 4431.168 5789.8125)">
									<stop  offset="0" style="stop-color:#DCDDDE"/>
									<stop  offset="1" style="stop-color:#A7A9AC"/>
								</linearGradient>
								<path class="st11" d="M83.6,159c-0.5,0.2-0.7,0.8-0.5,1.2l2.6,6.2c0.2,0.5,0.8,0.7,1.2,0.5l0,0c0.5-0.2,0.7-0.8,0.5-1.2
									l-2.6-6.2C84.6,159,84.1,158.8,83.6,159L83.6,159z"/>
							</g>
							<g>
								<path class="st9" d="M79.8,168c-0.6,0.3-0.9,1-0.6,1.6c0.3,0.6,1,0.9,1.6,0.6c0.6-0.3,0.9-1,0.6-1.6
									C81.1,168,80.4,167.8,79.8,168z"/>
								
									<linearGradient id="SVGID_3_" gradientUnits="userSpaceOnUse" x1="6884.3394" y1="1800.7942" x2="6876.1445" y2="1800.7942" gradientTransform="matrix(-0.3918 -0.92 -0.92 0.3918 4431.168 5789.8125)">
									<stop  offset="0" style="stop-color:#DCDDDE"/>
									<stop  offset="1" style="stop-color:#A7A9AC"/>
								</linearGradient>
								<path class="st12" d="M77.2,161.8c-0.5,0.2-0.7,0.8-0.5,1.2l2.6,6.2c0.2,0.5,0.8,0.7,1.2,0.5l0,0c0.5-0.2,0.7-0.8,0.5-1.2
									l-2.6-6.2C78.2,161.8,77.6,161.6,77.2,161.8L77.2,161.8z"/>
							</g>
							<g>
								<path class="st9" d="M73.4,170.8c-0.6,0.3-0.9,1-0.6,1.6c0.3,0.6,1,0.9,1.6,0.6c0.6-0.3,0.9-1,0.6-1.6
									C74.7,170.8,74,170.5,73.4,170.8z"/>
								
									<linearGradient id="SVGID_4_" gradientUnits="userSpaceOnUse" x1="6884.3433" y1="1807.8019" x2="6876.1445" y2="1807.8019" gradientTransform="matrix(-0.3918 -0.92 -0.92 0.3918 4431.168 5789.8125)">
									<stop  offset="0" style="stop-color:#DCDDDE"/>
									<stop  offset="1" style="stop-color:#A7A9AC"/>
								</linearGradient>
								<path class="st13" d="M70.7,164.5c-0.5,0.2-0.7,0.8-0.5,1.2l2.6,6.2c0.2,0.5,0.8,0.7,1.2,0.5l0,0c0.5-0.2,0.7-0.8,0.5-1.2
									l-2.6-6.2C71.7,164.5,71.2,164.3,70.7,164.5L70.7,164.5z"/>
							</g>
							<g>
								<path class="st9" d="M66.9,173.5c-0.6,0.3-0.9,1-0.6,1.6c0.3,0.6,1,0.9,1.6,0.6c0.6-0.3,0.9-1,0.6-1.6
									C68.2,173.5,67.5,173.2,66.9,173.5z"/>
								
									<linearGradient id="SVGID_5_" gradientUnits="userSpaceOnUse" x1="6884.3389" y1="1814.8141" x2="6876.147" y2="1814.8141" gradientTransform="matrix(-0.3918 -0.92 -0.92 0.3918 4431.168 5789.8125)">
									<stop  offset="0" style="stop-color:#DCDDDE"/>
									<stop  offset="1" style="stop-color:#A7A9AC"/>
								</linearGradient>
								<path class="st14" d="M64.3,167.3c-0.5,0.2-0.7,0.8-0.5,1.2l2.6,6.2c0.2,0.5,0.8,0.7,1.2,0.5l0,0c0.5-0.2,0.7-0.8,0.5-1.2
									l-2.6-6.2C65.3,167.3,64.7,167.1,64.3,167.3L64.3,167.3z"/>
							</g>
							<g>
								<path class="st9" d="M60.5,176.3c-0.6,0.3-0.9,1-0.6,1.6c0.3,0.6,1,0.9,1.6,0.6c0.6-0.3,0.9-1,0.6-1.6
									C61.8,176.3,61.1,176,60.5,176.3z"/>
								
									<linearGradient id="SVGID_6_" gradientUnits="userSpaceOnUse" x1="6884.3389" y1="1821.827" x2="6876.1455" y2="1821.827" gradientTransform="matrix(-0.3918 -0.92 -0.92 0.3918 4431.168 5789.8125)">
									<stop  offset="0" style="stop-color:#DCDDDE"/>
									<stop  offset="1" style="stop-color:#A7A9AC"/>
								</linearGradient>
								<path class="st15" d="M57.8,170c-0.5,0.2-0.7,0.8-0.5,1.2l2.6,6.2c0.2,0.5,0.8,0.7,1.2,0.5l0,0c0.5-0.2,0.7-0.8,0.5-1.2
									l-2.6-6.2C58.8,170,58.3,169.8,57.8,170L57.8,170z"/>
							</g>
							<g>
								<path class="st9" d="M54,179c-0.6,0.3-0.9,1-0.6,1.6c0.3,0.6,1,0.9,1.6,0.6c0.6-0.3,0.9-1,0.6-1.6
									C55.3,179,54.6,178.7,54,179z"/>
								
									<linearGradient id="SVGID_7_" gradientUnits="userSpaceOnUse" x1="6884.3403" y1="1828.8381" x2="6876.1479" y2="1828.8381" gradientTransform="matrix(-0.3918 -0.92 -0.92 0.3918 4431.168 5789.8125)">
									<stop  offset="0" style="stop-color:#DCDDDE"/>
									<stop  offset="1" style="stop-color:#A7A9AC"/>
								</linearGradient>
								<path class="st16" d="M51.4,172.8c-0.5,0.2-0.7,0.8-0.5,1.2l2.6,6.2c0.2,0.5,0.8,0.7,1.2,0.5l0,0c0.5-0.2,0.7-0.8,0.5-1.2
									l-2.6-6.2C52.4,172.8,51.8,172.5,51.4,172.8L51.4,172.8z"/>
							</g>
							<g>
								<path class="st9" d="M47.6,181.8c-0.6,0.3-0.9,1-0.6,1.6c0.3,0.6,1,0.9,1.6,0.6c0.6-0.3,0.9-1,0.6-1.6
									C48.9,181.8,48.2,181.5,47.6,181.8z"/>
								
									<linearGradient id="SVGID_8_" gradientUnits="userSpaceOnUse" x1="6884.3418" y1="1835.849" x2="6876.1426" y2="1835.849" gradientTransform="matrix(-0.3918 -0.92 -0.92 0.3918 4431.168 5789.8125)">
									<stop  offset="0" style="stop-color:#DCDDDE"/>
									<stop  offset="1" style="stop-color:#A7A9AC"/>
								</linearGradient>
								<path class="st17" d="M44.9,175.5c-0.5,0.2-0.7,0.8-0.5,1.2l2.6,6.2c0.2,0.5,0.8,0.7,1.2,0.5l0,0c0.5-0.2,0.7-0.8,0.5-1.2
									l-2.6-6.2C45.9,175.5,45.4,175.3,44.9,175.5L44.9,175.5z"/>
							</g>
							<g>
								<path class="st9" d="M41.1,184.5c-0.6,0.3-0.9,1-0.6,1.6c0.3,0.6,1,0.9,1.6,0.6c0.6-0.3,0.9-1,0.6-1.6
									C42.4,184.5,41.7,184.2,41.1,184.5z"/>
								
									<linearGradient id="SVGID_9_" gradientUnits="userSpaceOnUse" x1="6884.3423" y1="1842.8577" x2="6876.146" y2="1842.8577" gradientTransform="matrix(-0.3918 -0.92 -0.92 0.3918 4431.168 5789.8125)">
									<stop  offset="0" style="stop-color:#DCDDDE"/>
									<stop  offset="1" style="stop-color:#A7A9AC"/>
								</linearGradient>
								<path class="st18" d="M38.5,178.3c-0.5,0.2-0.7,0.8-0.5,1.2l2.6,6.2c0.2,0.5,0.8,0.7,1.2,0.5l0,0c0.5-0.2,0.7-0.8,0.5-1.2
									l-2.6-6.2C39.5,178.3,38.9,178,38.5,178.3L38.5,178.3z"/>
							</g>
						</g>
					</g>
				</g>
				<g>
					<path class="st19" d="M100.6,173.8l-57.1,24.5c-0.3,0.1-0.6,0-0.8-0.3l-0.3-0.6c-0.1-0.3,0-0.6,0.3-0.8l57.1-24.5
						c0.3-0.1,0.6,0,0.8,0.3l0.3,0.6C101,173.3,100.9,173.7,100.6,173.8z"/>
					<path class="st19" d="M102.9,180.2l-56.5,24.2c-0.5,0.2-1,0-1.2-0.5l0,0c-0.2-0.5,0-1,0.5-1.2l56.5-24.2c0.5-0.2,1,0,1.2,0.5
						l0,0C103.6,179.4,103.4,180,102.9,180.2z"/>
					<path class="st19" d="M105.6,186.4l-56.5,24.2c-0.5,0.2-1,0-1.2-0.5l0,0c-0.2-0.5,0-1,0.5-1.2l56.5-24.2c0.5-0.2,1,0,1.2,0.5
						l0,0C106.3,185.7,106.1,186.2,105.6,186.4z"/>
					<path class="st19" d="M108.3,192.7l-56.5,24.2c-0.5,0.2-1,0-1.2-0.5l0,0c-0.2-0.5,0-1,0.5-1.2l56.5-24.2c0.5-0.2,1,0,1.2,0.5
						l0,0C109,191.9,108.8,192.5,108.3,192.7z"/>
					<path class="st19" d="M111,198.9l-56.5,24.2c-0.5,0.2-1,0-1.2-0.5l0,0c-0.2-0.5,0-1,0.5-1.2l56.5-24.2c0.5-0.2,1,0,1.2,0.5l0,0
						C111.7,198.2,111.5,198.7,111,198.9z"/>
					<path class="st19" d="M113.7,205.2l-56.5,24.2c-0.5,0.2-1,0-1.2-0.5l0,0c-0.2-0.5,0-1,0.5-1.2l56.5-24.2c0.5-0.2,1,0,1.2,0.5v0
						C114.4,204.4,114.2,205,113.7,205.2z"/>
					<path class="st19" d="M116.4,211.4l-56.5,24.2c-0.5,0.2-1,0-1.2-0.5l0,0c-0.2-0.5,0-1,0.5-1.2l56.5-24.2c0.5-0.2,1,0,1.2,0.5
						l0,0C117.1,210.7,116.8,211.2,116.4,211.4z"/>
					<path class="st19" d="M119.1,217.7l-56.5,24.2c-0.5,0.2-1,0-1.2-0.5l0,0c-0.2-0.5,0-1,0.5-1.2l56.5-24.2c0.5-0.2,1,0,1.2,0.5
						l0,0C119.7,217,119.5,217.5,119.1,217.7z"/>
					<path class="st19" d="M121.7,224l-56.5,24.2c-0.5,0.2-1,0-1.2-0.5l0,0c-0.2-0.5,0-1,0.5-1.2l56.5-24.2c0.5-0.2,1,0,1.2,0.5l0,0
						C122.4,223.2,122.2,223.8,121.7,224z"/>
					<path class="st19" d="M124.4,230.2L68,254.4c-0.5,0.2-1,0-1.2-0.5l0,0c-0.2-0.5,0-1,0.5-1.2l56.5-24.2c0.5-0.2,1,0,1.2,0.5l0,0
						C125.1,229.5,124.9,230,124.4,230.2z"/>
					<path class="st19" d="M127.4,236.3l-57.1,24.5c-0.3,0.1-0.6,0-0.8-0.3l-0.3-0.6c-0.1-0.3,0-0.6,0.3-0.8l57.1-24.5
						c0.3-0.1,0.6,0,0.8,0.3l0.3,0.6C127.8,235.9,127.7,236.2,127.4,236.3z"/>
				</g>
			</g>
			<g>
				<g>
					<g>
						<polygon class="st20" points="110.9,246.7 109.3,246 144.5,169.5 146.2,170.2 						"/>
						<polygon class="st21" points="112.6,247.5 110.9,246.7 146.2,170.2 147.8,171 						"/>
						<polygon class="st22" points="114.2,248.2 112.6,247.5 147.8,171 149.5,171.7 						"/>
					</g>
					<polygon class="st23" points="146.2,170.2 152.1,159.6 144.5,169.5 					"/>
					<polygon class="st24" points="152.1,159.6 147.8,171 146.2,170.2 					"/>
					<polygon class="st25" points="152.1,159.6 149.5,171.7 147.8,171 					"/>
					<path class="st26" d="M151,162.5c-0.1,0-0.1,0-0.2-0.1c-0.1,0-0.2-0.1-0.3-0.1c-0.1-0.1-0.2-0.2-0.4-0.3l1.9-2.5l-0.7,3.1
						C151.2,162.6,151.1,162.6,151,162.5z"/>
				</g>
			</g>
		</g>
		<g>
			<g>
				
					<rect x="170.9" y="216.1" transform="matrix(0.9932 -0.1161 0.1161 0.9932 -27.2421 36.6715)" class="st27" width="260.9" height="72.3"/>
				<g>
					
						<rect x="230.2" y="272.5" transform="matrix(0.9932 -0.1161 0.1161 0.9932 -30.6341 32.6035)" class="st28" width="68.9" height="13.8"/>
					
						<rect x="212.1" y="277.7" transform="matrix(0.9932 -0.1161 0.1161 0.9932 -31.5419 27.4492)" class="st28" width="15.6" height="13.8"/>
					
						<rect x="197.3" y="279.6" transform="matrix(0.9932 -0.1161 0.1161 0.9932 -31.8754 25.5517)" class="st28" width="12.3" height="13.8"/>
					
						<rect x="180.8" y="281.4" transform="matrix(0.9932 -0.1161 0.1161 0.9932 -32.1948 23.7538)" class="st28" width="14.1" height="13.8"/>
					
						<rect x="333.2" y="263.8" transform="matrix(0.9932 -0.1161 0.1161 0.9932 -29.1334 41.1227)" class="st28" width="10.8" height="13.8"/>
					<g>
						
							<rect x="346.1" y="262.5" transform="matrix(0.9932 -0.1161 0.1161 0.9932 -28.9098 42.4024)" class="st28" width="7" height="13.8"/>
						
							<rect x="365.6" y="260.2" transform="matrix(0.9932 -0.1161 0.1161 0.9932 -28.5114 44.6422)" class="st28" width="7" height="13.8"/>
					</g>
					
						<rect x="318.3" y="265.5" transform="matrix(0.9932 -0.1161 0.1161 0.9932 -29.4171 39.4975)" class="st28" width="12.3" height="13.8"/>
					<g>
						
							<rect x="354.9" y="261.4" transform="matrix(0.9932 -0.1161 0.1161 0.9932 -28.2282 43.4358)" class="st28" width="8" height="5.4"/>
						
							<rect x="355.9" y="269.8" transform="matrix(0.9932 -0.1161 0.1161 0.9932 -29.1911 43.6055)" class="st28" width="8" height="5.4"/>
					</g>
					
						<rect x="301.8" y="267.3" transform="matrix(0.9932 -0.1161 0.1161 0.9932 -29.7364 37.7006)" class="st28" width="14.1" height="13.8"/>
					<g>
						
							<rect x="201.7" y="261.1" transform="matrix(0.9932 -0.1161 0.1161 0.9932 -29.7042 25.8376)" class="st28" width="10.6" height="13.8"/>
						
							<rect x="178.7" y="263.2" transform="matrix(0.9932 -0.1161 0.1161 0.9932 -30.0773 23.7265)" class="st28" width="19.9" height="13.8"/>
						
							<rect x="215" y="259.5" transform="matrix(0.9932 -0.1161 0.1161 0.9932 -29.4347 27.3649)" class="st28" width="10.6" height="13.8"/>
						
							<rect x="228.2" y="258" transform="matrix(0.9932 -0.1161 0.1161 0.9932 -29.1657 28.8928)" class="st28" width="10.6" height="13.8"/>
						
							<rect x="241.5" y="256.4" transform="matrix(0.9932 -0.1161 0.1161 0.9932 -28.8964 30.4204)" class="st28" width="10.6" height="13.8"/>
						
							<rect x="254.7" y="254.9" transform="matrix(0.9932 -0.1161 0.1161 0.9932 -28.6293 31.9507)" class="st28" width="10.6" height="13.8"/>
						
							<rect x="268" y="253.3" transform="matrix(0.9932 -0.1161 0.1161 0.9932 -28.3579 33.4756)" class="st28" width="10.6" height="13.8"/>
						
							<rect x="281.3" y="251.8" transform="matrix(0.9932 -0.1161 0.1161 0.9932 -28.0886 35.0032)" class="st28" width="10.6" height="13.8"/>
						
							<rect x="294.5" y="250.3" transform="matrix(0.9932 -0.1161 0.1161 0.9932 -27.8196 36.5312)" class="st28" width="10.6" height="13.8"/>
						
							<rect x="307.8" y="248.7" transform="matrix(0.9932 -0.1161 0.1161 0.9932 -27.5503 38.0588)" class="st28" width="10.6" height="13.8"/>
						
							<rect x="321" y="247.2" transform="matrix(0.9932 -0.1161 0.1161 0.9932 -27.2831 39.5897)" class="st28" width="10.6" height="13.8"/>
						
							<rect x="334.3" y="245.6" transform="matrix(0.9932 -0.1161 0.1161 0.9932 -27.0114 41.1133)" class="st28" width="10.6" height="13.8"/>
						
							<rect x="347.5" y="244.1" transform="matrix(0.9932 -0.1161 0.1161 0.9932 -26.744 42.6444)" class="st28" width="10.6" height="13.8"/>
					</g>
					<g>
						
							<rect x="193" y="244" transform="matrix(0.9932 -0.1161 0.1161 0.9932 -27.7815 24.7114)" class="st28" width="10.6" height="13.8"/>
						
							<rect x="176.7" y="245.8" transform="matrix(0.9932 -0.1161 0.1161 0.9932 -28.0843 22.9949)" class="st28" width="13.5" height="13.8"/>
						
							<rect x="206.3" y="242.5" transform="matrix(0.9932 -0.1161 0.1161 0.9932 -27.5138 26.2407)" class="st28" width="10.6" height="13.8"/>
						
							<rect x="219.5" y="240.9" transform="matrix(0.9932 -0.1161 0.1161 0.9932 -27.2424 27.766)" class="st28" width="10.6" height="13.8"/>
						
							<rect x="232.8" y="239.4" transform="matrix(0.9932 -0.1161 0.1161 0.9932 -26.9734 29.2939)" class="st28" width="10.6" height="13.8"/>
						
							<rect x="246" y="237.8" transform="matrix(0.9932 -0.1161 0.1161 0.9932 -26.7041 30.8215)" class="st28" width="10.6" height="13.8"/>
						
							<rect x="259.3" y="236.3" transform="matrix(0.9932 -0.1161 0.1161 0.9932 -26.4349 32.3491)" class="st28" width="10.6" height="13.8"/>
						
							<rect x="272.5" y="234.7" transform="matrix(0.9932 -0.1161 0.1161 0.9932 -26.1656 33.8767)" class="st28" width="10.6" height="13.8"/>
						
							<rect x="285.8" y="233.2" transform="matrix(0.9932 -0.1161 0.1161 0.9932 -25.8965 35.4046)" class="st28" width="10.6" height="13.8"/>
						
							<rect x="299" y="231.6" transform="matrix(0.9932 -0.1161 0.1161 0.9932 -25.6292 36.9354)" class="st28" width="10.6" height="13.8"/>
						
							<rect x="312.3" y="230.1" transform="matrix(0.9932 -0.1161 0.1161 0.9932 -25.358 38.4599)" class="st28" width="10.6" height="13.8"/>
						
							<rect x="325.5" y="228.5" transform="matrix(0.9932 -0.1161 0.1161 0.9932 -25.0883 39.9867)" class="st28" width="10.6" height="13.8"/>
						
							<rect x="338.8" y="227" transform="matrix(0.9932 -0.1161 0.1161 0.9932 -24.819 41.5143)" class="st28" width="10.6" height="13.8"/>
						<polygon class="st28" points="360.4,225 357.1,225.4 350.8,226.2 352.5,239.9 358.7,239.1 360.8,257 371.3,255.8 367.6,224.2 
													"/>
					</g>
					
						<rect x="372.6" y="223" transform="matrix(0.9932 -0.1161 0.1161 0.9932 -24.1333 45.4062)" class="st28" width="10.6" height="13.8"/>
					
						<rect x="385.8" y="221.5" transform="matrix(0.9932 -0.1161 0.1161 0.9932 -23.864 46.9338)" class="st28" width="10.6" height="13.8"/>
					
						<rect x="399.1" y="219.9" transform="matrix(0.9932 -0.1161 0.1161 0.9932 -23.5964 48.4654)" class="st28" width="10.6" height="13.8"/>
					
						<rect x="413.6" y="231.5" transform="matrix(0.9932 -0.1161 0.1161 0.9932 -24.6469 50.2098)" class="st28" width="10.6" height="10.4"/>
					
						<rect x="412" y="218.4" transform="matrix(0.9932 -0.1161 0.1161 0.9932 -23.1358 49.9468)" class="st28" width="10.6" height="10.4"/>
					
						<rect x="415.8" y="244.3" transform="matrix(0.9932 -0.1161 0.1161 0.9932 -26.8804 50.6035)" class="st28" width="10.6" height="23.7"/>
					
						<rect x="374.7" y="240.9" transform="matrix(0.9932 -0.1161 0.1161 0.9932 -26.191 45.7689)" class="st28" width="10.6" height="13.8"/>
					
						<rect x="387.9" y="239.3" transform="matrix(0.9932 -0.1161 0.1161 0.9932 -25.9217 47.2965)" class="st28" width="10.6" height="13.8"/>
					
						<rect x="401.2" y="237.8" transform="matrix(0.9932 -0.1161 0.1161 0.9932 -25.6524 48.8241)" class="st28" width="10.6" height="13.8"/>
					
						<rect x="376.7" y="258.7" transform="matrix(0.9932 -0.1161 0.1161 0.9932 -28.2487 46.1317)" class="st28" width="10.6" height="13.8"/>
					
						<rect x="390" y="257.2" transform="matrix(0.9932 -0.1161 0.1161 0.9932 -27.9794 47.6593)" class="st28" width="10.6" height="13.8"/>
					
						<rect x="403.2" y="255.6" transform="matrix(0.9932 -0.1161 0.1161 0.9932 -27.7121 49.191)" class="st28" width="10.6" height="13.8"/>
					<g>
						
							<rect x="175.2" y="236.5" transform="matrix(0.9932 -0.1161 0.1161 0.9932 -26.607 22.7344)" class="st28" width="13.5" height="6.8"/>
						
							<rect x="190.7" y="234.7" transform="matrix(0.9932 -0.1161 0.1161 0.9932 -26.2913 24.5242)" class="st28" width="13.5" height="6.8"/>
						
							<rect x="206.2" y="232.8" transform="matrix(0.9932 -0.1161 0.1161 0.9932 -25.976 26.3144)" class="st28" width="13.5" height="6.8"/>
						
							<rect x="221.8" y="231" transform="matrix(0.9932 -0.1161 0.1161 0.9932 -25.6604 28.1044)" class="st28" width="13.5" height="6.8"/>
						
							<rect x="237.3" y="229.2" transform="matrix(0.9932 -0.1161 0.1161 0.9932 -25.3446 29.894)" class="st28" width="13.5" height="6.8"/>
						
							<rect x="252.8" y="227.4" transform="matrix(0.9932 -0.1161 0.1161 0.9932 -25.0294 31.6844)" class="st28" width="13.5" height="6.8"/>
						
							<rect x="268.4" y="225.6" transform="matrix(0.9932 -0.1161 0.1161 0.9932 -24.7137 33.4741)" class="st28" width="13.5" height="6.8"/>
						
							<rect x="283.9" y="223.8" transform="matrix(0.9932 -0.1161 0.1161 0.9932 -24.3984 35.2644)" class="st28" width="13.5" height="6.8"/>
						
							<rect x="299.4" y="222" transform="matrix(0.9932 -0.1161 0.1161 0.9932 -24.0828 37.0544)" class="st28" width="13.5" height="6.8"/>
						
							<rect x="314.9" y="220.1" transform="matrix(0.9932 -0.1161 0.1161 0.9932 -23.7683 38.8463)" class="st28" width="13.5" height="6.8"/>
						
							<rect x="330.5" y="218.3" transform="matrix(0.9932 -0.1161 0.1161 0.9932 -23.4518 40.6344)" class="st28" width="13.5" height="6.8"/>
						
							<rect x="346" y="216.5" transform="matrix(0.9932 -0.1161 0.1161 0.9932 -23.1363 42.4244)" class="st28" width="13.5" height="6.8"/>
						
							<rect x="361.5" y="214.7" transform="matrix(0.9932 -0.1161 0.1161 0.9932 -22.8207 44.2144)" class="st28" width="13.5" height="6.8"/>
						
							<rect x="377.1" y="212.9" transform="matrix(0.9932 -0.1161 0.1161 0.9932 -22.5052 46.0044)" class="st28" width="13.5" height="6.8"/>
						
							<rect x="392.6" y="211.1" transform="matrix(0.9932 -0.1161 0.1161 0.9932 -22.1896 47.794)" class="st28" width="13.5" height="6.8"/>
						
							<rect x="408.1" y="209.3" transform="matrix(0.9932 -0.1161 0.1161 0.9932 -21.8741 49.5843)" class="st28" width="13.5" height="6.8"/>
					</g>
				</g>
				
					<rect x="175.2" y="288.1" transform="matrix(0.9932 -0.1161 0.1161 0.9932 -31.57 37.4343)" class="st29" width="260.9" height="3.4"/>
			</g>
			
				<rect x="166.6" y="213.2" transform="matrix(0.9932 -0.1161 0.1161 0.9932 -23.0057 35.9288)" class="st3" width="260.9" height="4.7"/>
		</g>
		<g>
			<g>
				<circle class="st30" cx="467.9" cy="111.8" r="17.7"/>
				<path class="st31" d="M440.1,126.8l3.1,4.7l8.9-5.8c6.7,7.8,18.3,9.6,27.1,3.8c9.6-6.3,12.4-19.2,6.1-28.8
					c-6.3-9.6-19.2-12.4-28.8-6.1c-8.8,5.8-11.9,17.1-7.4,26.4L440.1,126.8z M459.2,98.9c7.3-4.8,17.1-2.7,21.9,4.6
					c4.8,7.3,2.7,17.1-4.6,21.9c-7.3,4.8-17.1,2.7-21.9-4.6C449.8,113.4,451.9,103.6,459.2,98.9z"/>
				<circle class="st32" cx="469.8" cy="115.2" r="10.5"/>
				<circle class="st33" cx="473" cy="120" r="3.7"/>
			</g>
			<path class="st34" d="M440,124.5c-0.4,0.2-0.7,0.4-1.1,0.6L400.7,150c-3.3,2.2-4.8,5.8-3.3,8c1.5,2.3,5.4,2.4,8.7,0.2l38.3-24.9
				c0.3-0.2,0.7-0.5,1-0.7L440,124.5z"/>
		</g>
		<g>
			<path class="st35" d="M335.5,122.1c0.1,14.6-23.1,38.3-51.8,38.4c-28.8,0.2-52.2-23.3-52.2-37.8c-0.1-14.6,23.1-26.5,51.9-26.7
				C312.1,95.8,335.4,107.5,335.5,122.1z"/>
			<path class="st36" d="M335.1,121.3c0.1,14.6-23.1,37.4-51.8,37.6c-28.8,0.2-52.2-22.4-52.2-36.9c-0.1-14.6,23.1-26.5,51.9-26.7
				C311.7,95.1,335,106.8,335.1,121.3z"/>
			<path class="st34" d="M334.7,120.4c0.1,14.6-23.1,38.3-51.8,38.4c-28.8,0.2-52.2-23.3-52.2-37.8c-0.1-14.6,23.1-26.5,51.9-26.7
				C311.2,94.2,334.6,105.9,334.7,120.4z"/>
			<path class="st34" d="M456.8,49.7c0,1.9-2,3.4-4.5,3.5l-334.8,2c-2.5,0-4.6-1.5-4.6-3.4l0-7.1c0-1.9,2-3.4,4.5-3.5l334.8-2
				c2.5,0,4.6,1.5,4.6,3.4L456.8,49.7z"/>
			<path class="st35" d="M156.1,126.4c0.7,1.3,2.8,2.3,4.7,2.3l244.4-1.5c1.8,0,4-1,4.8-2.3l4.9-7.8l-263.8,1.6L156.1,126.4z"/>
			<path class="st5" d="M454.1,49.2l-338.3,2c-2.5,0-3.5,1.9-2.1,4.2l36.3,62l0.1,0.1l0,0l5,7.7c0.8,1.3,2.9,2.3,4.7,2.3l246.3-1.5
				c1.8,0,4-1,4.8-2.3l5-7.8l-0.1,0l0.1-0.1L456,53.4C457.5,51.1,456.7,49.2,454.1,49.2z"/>
			<path class="st2" d="M118.4,55.8l39.9,65.9l249-1.6l42-66C449.6,53.7,118.4,55.8,118.4,55.8z"/>
			<polygon class="st37" points="117.5,55.7 157.2,122.9 408,120.1 449.5,53.8 			"/>
			<polygon class="st38" points="117.5,55.7 284.9,120.8 157.2,122.9 			"/>
			<g>
				<defs>
					<polygon id="SVGID_10_" points="117.5,55.2 157.2,122.9 408,120.1 449.5,53.8 					"/>
				</defs>
				<clipPath id="SVGID_11_">
					<use xlink:href="#SVGID_10_"  style="overflow:visible;"/>
				</clipPath>
			</g>
		</g>
		<g>
			<g>
				<path class="st5" d="M507.3,214.1l-40.1-12.5c-0.5-0.2-0.8-0.7-0.7-1.3l23.3-74.9c0.3-1.1,1.5-1.6,2.5-1.3l38.1,11.9
					c1.1,0.3,1.6,1.5,1.3,2.5l-23.3,74.9C508.4,213.9,507.8,214.2,507.3,214.1z"/>
				<path class="st34" d="M509.6,203.4l-38.2-11.9l18.2-58.4c0.2-0.5,0.7-0.8,1.3-0.7l36.3,11.3c0.5,0.2,0.8,0.7,0.7,1.3
					L509.6,203.4z"/>
				<path class="st39" d="M513.4,135.6l-6.8-2.1c-0.1,0-0.2-0.2-0.2-0.3l0,0c0-0.1,0.2-0.2,0.3-0.2l6.8,2.1c0.1,0,0.2,0.2,0.2,0.3
					l0,0C513.7,135.6,513.6,135.7,513.4,135.6z"/>
				<circle class="st39" cx="504.6" cy="132.6" r="0.6"/>
				<g>
					<circle class="st34" cx="488.9" cy="202.5" r="3.3"/>
					<g>
						<path class="st5" d="M489.2,203.9l-1.4-0.4c-0.2-0.1-0.3-0.3-0.2-0.5l0.5-1.6c0.1-0.2,0.3-0.3,0.5-0.2l1.4,0.4
							c0.2,0.1,0.3,0.3,0.2,0.5l-0.5,1.6C489.6,203.8,489.4,204,489.2,203.9z M488.5,201.3c-0.1,0-0.3,0-0.3,0.2l-0.5,1.6
							c0,0.1,0,0.3,0.2,0.3l1.4,0.4c0.1,0,0.3,0,0.3-0.2l0.5-1.6c0-0.1,0-0.3-0.2-0.3L488.5,201.3z"/>
					</g>
				</g>
			</g>
			<path class="st40" d="M527.8,144.9l-46.3,14l8.1-25.9c0,0,0.5-0.9,1.3-0.7c0.8,0.2,36.3,11.3,36.3,11.3S528.1,144,527.8,144.9z"
				/>
		</g>
		<g>
			<g>
				<path class="st5" d="M506.8,275.6l-33.1,9.4c-0.9,0.2-1.8-0.3-2-1.1l-5.6-19.6c-0.2-0.9,0.3-1.8,1.1-2l33.1-9.4
					c0.9-0.2,1.8,0.3,2,1.1l5.6,19.6C508.2,274.5,507.7,275.4,506.8,275.6z"/>
				
					<rect x="466.6" y="260.8" transform="matrix(0.9617 -0.2742 0.2742 0.9617 -53.6773 143.2264)" class="st34" width="37.7" height="5.6"/>
				
					<rect x="469.3" y="269.6" transform="matrix(0.9617 -0.2742 0.2742 0.9617 -56.1484 144.3201)" class="st41" width="37.7" height="6.8"/>
				
					<rect x="490.3" y="270.9" transform="matrix(0.9617 -0.2742 0.2742 0.9617 -55.547 145.6863)" class="st34" width="6.1" height="1.3"/>
				
					<rect x="498.3" y="268.8" transform="matrix(0.9617 -0.2742 0.2742 0.9617 -54.7035 147.5772)" class="st34" width="4.4" height="1.3"/>
				
					<rect x="466.8" y="259.1" transform="matrix(0.9617 -0.2742 0.2742 0.9617 -52.6011 142.3197)" class="st34" width="31.9" height="0.3"/>
				
					<rect x="472.4" y="278.7" transform="matrix(0.9617 -0.2742 0.2742 0.9617 -57.7955 144.48)" class="st34" width="30.9" height="0.6"/>
			</g>
			<g>
				<g>
					<g>
						<path class="st5" d="M496.6,305.8L464,290.9c-0.8-0.4-1.2-1.3-0.8-2.2l8.9-19.4c0.4-0.8,1.3-1.2,2.2-0.8l32.6,14.9
							c0.8,0.4,1.2,1.3,0.8,2.2l-8.9,19.4C498.4,305.8,497.4,306.2,496.6,305.8z"/>
					</g>
				</g>
				<g>
					<circle class="st42" cx="491.7" cy="299" r="3"/>
					<circle class="st43" cx="495.4" cy="300.7" r="3"/>
				</g>
				
					<rect x="463.1" y="290.5" transform="matrix(0.9096 0.4156 -0.4156 0.9096 164.2684 -171.3785)" class="st34" width="25.6" height="2.6"/>
				
					<rect x="468.7" y="276.6" transform="matrix(0.9096 0.4155 -0.4155 0.9096 160.9069 -177.4886)" class="st44" width="39.1" height="8.7"/>
				<g>
					<path class="st34" d="M482.8,278.7l-0.8-0.3l-0.3,0.7l0.7,0.3l0.2-0.3l0.3,0.2l-0.3,0.8l-2-0.9l0.1-0.3l0.3,0l0.8-1.8l-0.2-0.2
						l0.1-0.3l0.9,0.4l1.1,0.5l-0.3,0.7l-0.3-0.2l0-0.3l-0.6-0.3l-0.3,0.6l0.8,0.3L482.8,278.7z"/>
					<path class="st34" d="M484.4,279.9l-1.1-0.5l0.2-0.5l1.1,0.5L484.4,279.9z"/>
					<path class="st34" d="M487.2,279.4c0,0-0.2-0.1-0.4-0.3c-0.4-0.2-0.8,0-1,0.6c-0.3,0.6-0.2,1,0.2,1.2c0.4,0.2,0.8,0.1,0.8,0.1
						l0.1,0.4c0,0-0.6,0.2-1.2,0c-0.8-0.4-1-1-0.6-1.9c0.4-0.9,1.1-1.2,1.9-0.8c0.5,0.2,0.8,0.6,0.8,0.6l-0.3,0.7l-0.4-0.2
						L487.2,279.4z"/>
					<path class="st34" d="M489.5,283.2l-1.2-0.5l0.1-0.3l0.3,0l0-0.3l-0.8-0.4l-0.2,0.2l0.2,0.2l-0.1,0.3l-1.1-0.5l0.1-0.3l0.3,0
						l1.8-1.8l0.6,0.3l-0.2,2.6l0.2,0.2L489.5,283.2z M489,280.5l-0.7,0.8l0.6,0.3L489,280.5z"/>
					<path class="st34" d="M489.8,282.9l0.3,0l0.8-1.8l-0.2-0.2l0.1-0.3l0.9,0.4l0.3,0.1c0.6,0.3,0.9,0.7,0.6,1.2
						c-0.2,0.4-0.4,0.5-0.8,0.5c0,0.1,0,0.2,0,0.3l0,0.6l0.2,0.2l-0.1,0.3l-0.7-0.3l0-0.8c0-0.3,0-0.4-0.2-0.5l-0.1-0.1l-0.3,0.6
						l0.2,0.2l-0.1,0.3l-1.1-0.5L489.8,282.9z M491.4,282.3c0.3,0.1,0.5,0.1,0.7-0.2c0.1-0.2,0-0.4-0.2-0.5l-0.3-0.1l-0.4,0.8
						L491.4,282.3z"/>
					<path class="st34" d="M493.5,282.3l-0.2-0.2l0.1-0.3l0.9,0.4l0.4,0.2c0.8,0.3,1,1,0.6,1.8c-0.4,0.9-1.1,1.1-1.9,0.8l-1.2-0.5
						l0.1-0.3l0.3,0L493.5,282.3z M493.6,284.5c0.4,0.2,0.7,0.1,1-0.6c0.3-0.6,0.2-1-0.2-1.1l-0.3-0.2l-0.8,1.8L493.6,284.5z"/>
				</g>
				
					<rect x="465.9" y="288.3" transform="matrix(0.9096 0.4155 -0.4155 0.9096 163.8568 -175.2552)" class="st45" width="37.5" height="1.1"/>
			</g>
		</g>
	</g>
	<g class="st46">
		<g class="st47">
			<g>
				<polygon class="st2" points="249.2,109.9 250.4,117.8 168,118.3 163.9,110.4 				"/>
			</g>
			<g>
				<polygon class="st2" points="341.2,103.5 340.7,105.4 161.7,106.3 160.8,104.5 				"/>
			</g>
			<g>
				<polygon class="st2" points="342.7,96.9 342.2,98.9 158.3,99.9 157.3,97.9 				"/>
			</g>
			<g>
				<polygon class="st2" points="344.3,89.9 343.8,92 154.7,93 153.7,91 				"/>
			</g>
			<g>
				<polygon class="st2" points="417.1,86.5 401.5,117 345.8,117.3 353.9,86.9 				"/>
			</g>
			<g>
				<polygon class="st2" points="346,82.5 345.5,84.7 150.9,85.8 149.8,83.6 				"/>
			</g>
			<g>
				<polygon class="st2" points="351.7,57.5 351.1,60.2 138.1,61.4 136.7,58.7 				"/>
			</g>
			<g>
				<polygon class="st2" points="432.2,57.1 418.8,83.3 354.7,83.6 361.7,57.5 				"/>
			</g>
		</g>
		<g>
			<polygon class="st2" points="347.8,74.7 347.3,77.1 146.9,78.1 145.7,75.8 			"/>
		</g>
		<g>
			<polygon class="st2" points="349.7,66.4 349.1,68.9 142.6,70 141.3,67.5 			"/>
		</g>
	</g>
</g>
</svg>
